<?xml version="1.0" standalone="no"?>
<!DOCTYPE svg PUBLIC "-//W3C//DTD SVG 20010904//EN"
 "http://www.w3.org/TR/2001/REC-SVG-20010904/DTD/svg10.dtd">
<svg version="1.0" xmlns="http://www.w3.org/2000/svg"
 width="700.000000pt" height="700.000000pt" viewBox="0 0 700.000000 700.000000"
 preserveAspectRatio="xMidYMid meet">
<metadata>
Created by potrace 1.14, written by Peter Selinger 2001-2017
</metadata>
<g transform="translate(0.000000,700.000000) scale(0.100000,-0.100000)"
fill="#000000" stroke="none">
<path d="M4080 5974 c-76 -29 -144 -84 -172 -139 -9 -16 -41 -113 -72 -215
-110 -364 -128 -426 -156 -520 -16 -52 -49 -165 -75 -250 -25 -85 -64 -216
-86 -290 -22 -74 -57 -191 -78 -260 -22 -69 -62 -201 -90 -295 -28 -93 -67
-224 -87 -290 -54 -180 -171 -573 -274 -915 -50 -168 -102 -341 -115 -385 -14
-44 -75 -246 -136 -450 -60 -203 -114 -383 -119 -400 -63 -202 -71 -243 -55
-316 45 -206 301 -291 463 -154 65 54 74 77 192 475 11 36 40 133 65 215 25
83 48 157 50 165 2 8 108 362 235 785 127 424 247 822 265 885 19 63 75 250
125 415 50 165 93 307 95 315 2 8 83 278 180 600 97 322 178 590 179 595 1 6
8 30 15 55 43 150 -12 283 -144 352 -40 21 -171 35 -205 22z"/>
<path d="M2102 5305 c-58 -18 -63 -22 -361 -284 -35 -31 -82 -72 -105 -91 -22
-19 -63 -55 -91 -80 -28 -25 -82 -72 -120 -105 -38 -33 -73 -64 -79 -70 -6 -5
-43 -37 -81 -70 -39 -33 -72 -62 -75 -65 -3 -3 -61 -55 -130 -114 -69 -60
-138 -121 -155 -135 -29 -26 -315 -276 -444 -390 -36 -31 -85 -74 -110 -96
-163 -143 -193 -187 -197 -293 -6 -117 24 -166 194 -314 64 -56 119 -105 122
-108 3 -3 57 -50 120 -105 63 -55 120 -104 126 -110 6 -5 39 -35 74 -65 35
-30 143 -124 239 -209 97 -85 205 -179 241 -210 55 -48 128 -112 166 -146 14
-13 107 -94 264 -230 69 -60 127 -112 130 -115 3 -3 39 -34 80 -70 41 -36 84
-73 94 -83 75 -67 210 -82 309 -34 125 62 187 199 149 332 -22 79 -43 104
-182 225 -35 30 -73 63 -84 73 -12 10 -45 40 -75 65 -29 26 -59 52 -65 57 -6
6 -69 61 -141 124 -71 62 -148 130 -171 150 -22 20 -54 47 -70 61 -16 14 -68
59 -114 100 -47 41 -114 100 -149 130 -35 30 -73 63 -85 73 -12 10 -37 33 -56
50 -19 18 -69 61 -110 96 -41 36 -79 70 -85 75 -5 6 -52 47 -102 91 -51 43
-93 82 -93 85 0 4 21 24 47 46 25 21 52 44 59 51 6 7 52 47 100 89 111 96 223
194 244 214 9 8 45 40 81 70 35 30 123 107 194 170 72 63 162 142 200 175 38
33 92 80 120 105 90 79 169 148 195 170 14 12 36 32 50 44 14 12 64 55 110 96
47 41 99 89 116 107 134 141 86 376 -92 455 -55 24 -148 30 -202 13z"/>
<path d="M4711 5298 c-187 -71 -244 -315 -108 -459 33 -34 52 -52 187 -169 41
-36 77 -67 80 -70 3 -3 39 -35 80 -70 41 -36 77 -67 80 -70 3 -3 39 -34 80
-70 72 -63 131 -114 154 -135 17 -15 327 -287 360 -315 16 -14 34 -29 40 -35
6 -5 45 -39 86 -75 41 -36 77 -67 80 -70 3 -3 39 -34 80 -70 93 -81 124 -108
175 -154 l40 -36 -31 -28 c-16 -15 -59 -52 -94 -82 -35 -30 -68 -59 -74 -65
-9 -8 -80 -70 -221 -194 -16 -14 -102 -89 -190 -166 -88 -77 -162 -142 -165
-145 -3 -3 -57 -50 -120 -105 -63 -54 -117 -102 -120 -105 -3 -3 -36 -32 -75
-65 -38 -32 -77 -66 -86 -75 -8 -8 -90 -80 -182 -160 -92 -79 -178 -161 -191
-181 -129 -195 12 -452 244 -444 73 3 137 28 186 72 17 15 91 80 164 143 73
63 143 124 154 135 12 11 50 45 86 75 35 30 72 62 80 70 17 16 45 40 320 280
96 84 204 178 240 210 36 31 126 110 200 175 74 65 153 134 176 154 22 20 67
59 99 86 32 28 67 59 79 70 12 11 48 43 80 70 114 95 153 156 163 248 10 100
-41 206 -133 278 -17 13 -60 50 -95 81 -35 31 -73 65 -85 75 -88 76 -149 130
-158 138 -6 6 -63 55 -126 110 -63 55 -117 102 -120 105 -3 3 -75 66 -160 140
-85 74 -157 137 -160 140 -3 3 -61 54 -130 114 -69 60 -154 135 -190 166 -415
365 -521 454 -560 472 -65 28 -153 31 -219 6z"/>
</g>
</svg>
