<svg width="3001" height="1201" viewBox="0 0 3001 1201" fill="none" xmlns="http://www.w3.org/2000/svg">
<path d="M2028.43 859.465C2184.97 949.516 2727.57 832.411 2838.26 763.312C2948.96 694.212 3013.72 694.384 2998.16 597.191C2982.6 499.997 2900.93 67.7559 2747.35 0.353011C2624.49 0.349977 1676.9 0.352651 1676.9 0.352651C1676.9 0.352651 1029.56 506.943 1054.54 638.859C1079.51 770.775 1446.65 722.598 1545.74 710.139C1644.83 697.681 1871.9 769.414 2028.43 859.465Z" fill="#CCE8FD"/>
<path d="M1291.32 601.886C1163.05 480.285 846.403 492.349 522.38 569.407C198.358 646.466 53.0721 1034.5 0.456055 1200.35H2285.39C2101.71 987.481 1975.91 913.198 1724.97 852.654C1474.03 792.111 1419.59 723.486 1291.32 601.886Z" fill="#B7E0FF"/>
</svg>
