<svg width="259" height="287" viewBox="0 0 259 287" fill="none" xmlns="http://www.w3.org/2000/svg">
<path fill-rule="evenodd" clip-rule="evenodd" d="M245.949 157.649C242.423 157.996 238.898 158.341 235.372 158.687C218.486 159.978 201.606 162.672 184.849 164.289C184.432 163.61 183.615 163.722 183.12 164.194C181.448 164.047 179.574 162.769 178.059 164.099C178.01 164.092 177.961 164.084 177.911 164.079C175.214 158.903 173.35 153.382 171.541 147.854C170.386 144.455 168.832 141.165 165.961 138.883C161.061 135.481 149.834 128.584 144.081 128.874C143.986 127.844 143.505 126.782 142.717 126.096C144.455 123.134 137.506 121.201 137.016 121.544C137.33 111.646 132.674 103.049 122.407 101.078C113.209 99.1617 100.127 98.8398 95.1804 108.452C94.6366 108.391 89.0783 108.362 88.5405 108.422C87.7043 107.363 78.5216 117.398 82.2852 120.892C48.6372 135.776 29.5049 134 20.1917 175.845C18.9327 179.776 18.841 184.078 17.5115 187.921C12.7814 198.966 8.94493 210.727 7.99013 222.744C5.68407 223.335 5.41886 227.401 8.08998 227.989C9.11028 228.214 9.9635 228.522 10.7075 229.104C10.1259 238.953 12.5078 261.45 14.0086 261.381C17.0688 271.12 30.7187 273.869 40.3824 270.446C38.7165 273.58 40.3824 275.551 40.3824 277.225C75.155 278.541 113.175 277.783 147.938 279.587C152.385 279.524 157.062 280.68 161.448 280.015C164.123 279.373 164.127 275.168 161.414 274.648L173.269 272.073C173.004 271.973 178.156 268.546 182.05 262.143C185.674 254.98 183.207 246.333 184.849 238.542C197.675 237.493 210.713 237.044 223.399 234.872C225.128 240.047 232.616 233.858 234.996 231.368C234.993 231.364 234.99 231.361 234.987 231.357C236.139 231.042 237.062 229.962 237.093 228.684C237.901 227.53 238.071 225.903 237.296 224.788C240.846 204.302 246.259 183.385 248.215 162.706C248.907 162.553 249.558 162.25 250.11 161.783L250.065 161.738C251.001 160.695 251.183 158.895 249.623 158.009C248.365 157.293 247.315 157.515 245.949 157.649Z" fill="#D08B5B"/>
<path fill-rule="evenodd" clip-rule="evenodd" d="M111.853 234.324L114.569 236.052L136.792 243.213L150.372 244.941L161.483 243.213V262.226L163.706 280.004C162.718 281.814 153.335 281.814 135.557 280.004C124.224 278.849 82.805 278.289 73.3747 278.043L72.8404 278.028C61.7589 277.709 50.8122 277.709 40.0005 278.028V271.361L70.8651 256.053L98.5197 240.497L111.853 234.324ZM96.1071 106.898L98.148 108.422L93.692 115.743L115.399 133.302V147.326L122.271 153.826L126.2 147.326L131.735 139.965L135.668 128.033L134.329 120.172L137.022 119.919C137.035 120.456 137.033 120.998 137.016 121.544C137.506 121.201 144.455 123.134 142.717 126.097C143.505 126.782 143.985 127.844 144.081 128.874C149.834 128.584 161.061 135.482 165.961 138.883C168.832 141.165 170.386 144.455 171.541 147.854L171.812 148.683L172.093 149.534L172.376 150.385C173.939 155.06 175.626 159.693 177.911 164.079C177.96 164.084 178.01 164.092 178.059 164.099C179.573 162.769 181.447 164.047 183.12 164.194C183.604 163.733 184.394 163.615 184.819 164.243L184.849 164.289L164.017 168.393L150.273 216.602L138.304 206.887L131.88 207.842L114.915 213.961L95.1828 219.087L50.1377 231.505H44.4014L11.0221 223.445L8.01392 222.452C9.00729 210.536 12.8198 198.876 17.5114 187.921C18.8409 184.078 18.9326 179.776 20.1917 175.845C29.5049 134.001 48.6372 135.777 82.2851 120.892C78.5215 117.398 87.7042 107.363 88.5404 108.422L88.5931 108.418L88.707 108.412L88.8539 108.406C90.1665 108.368 94.6924 108.397 95.1803 108.452C95.4634 107.902 95.773 107.385 96.1071 106.898Z" fill="#FFCF77"/>
<path fill-rule="evenodd" clip-rule="evenodd" d="M249.279 159.113L248.658 162.571C248.511 162.62 248.361 162.66 248.209 162.694C248.014 164.756 247.784 166.819 247.526 168.885L243.679 190.327C243.015 194.12 242.385 197.922 241.76 201.725L240.931 205.81L240.418 208.348C239.31 213.846 238.234 219.326 237.29 224.776C237.432 224.981 237.543 225.204 237.623 225.437L237.551 225.745L237.5 225.949L237.449 226.152C236.703 229.016 235.407 231.794 232.351 232.637C230.046 233.272 227.518 233.33 225.138 233.581L224.874 233.609L183.229 238.293C178.197 238.858 173.168 239.441 168.139 240.03L163.779 240.541C157.702 241.245 151.59 241.799 145.603 243.073C145.383 243.12 145.201 243.207 145.052 243.323C146.258 238.759 147.412 234.201 148.458 229.591C149.635 224.403 150.753 219.204 152.012 214.035C154.549 203.62 157.393 193.273 160.506 183.016C161.159 180.863 161.827 178.714 162.51 176.57L162.99 175.072L163.359 173.878C163.929 172.057 164.636 170.186 166.31 169.182C168.269 168.006 170.94 167.812 173.162 167.405L174.666 167.122C176.917 166.702 179.171 166.298 181.428 165.91C192.232 164.052 203.097 162.561 214.002 161.442C225.35 160.276 236.738 159.519 248.139 159.149L249.279 159.113ZM145.915 230.606L146.022 230.615L144.466 243.05C144.217 242.876 143.902 242.769 143.516 242.77C138.414 242.785 133.522 241.155 128.792 239.362L128.071 239.087L126.063 238.315C124.021 237.533 121.968 236.768 119.877 236.133L119.032 235.878L118.602 235.752C117.019 235.289 115.354 234.869 113.707 234.765L113.483 234.752L113.962 234.501C114.033 234.464 114.094 234.423 114.149 234.378C115.055 234.446 115.963 234.427 116.919 234.255C118.717 233.931 120.466 233.306 122.071 232.435L122.788 232.046L123.082 231.891L123.276 231.79L123.468 231.693C124.847 231.005 126.166 230.575 127.907 230.941C129.883 231.357 131.615 232.422 133.397 233.322L133.713 233.479L133.925 233.582L134.142 233.684L134.361 233.784C136.771 234.868 140.605 236.038 141.529 232.763C141.9 231.447 141.609 230.214 140.965 229.134C142.165 229.03 144.309 230.445 145.915 230.606ZM205.886 189.636L205.915 189.785C206.256 191.619 205.401 193.374 204.108 194.652C203.048 195.701 201.171 196.284 200.639 197.793C200.337 198.652 200.659 199.466 201.28 200.034L201.137 200.104L200.997 200.176L200.861 200.248L200.727 200.321L200.598 200.394C198.485 201.608 196.765 203.581 198.67 205.964C200.831 208.668 205.347 208.756 208.528 208.544L208.742 208.529C211.827 208.298 215.481 207.262 217.154 204.414C217.921 203.107 217.837 201.527 216.767 200.408C216.122 199.734 214.971 199.041 213.916 198.959C213.962 198.364 213.891 197.79 213.682 197.305C213.23 196.258 212.026 195.552 210.865 195.527C210.959 193.302 209.177 191.106 207.865 189.328L207.731 189.145L207.601 188.966C206.999 188.128 205.711 188.598 205.886 189.636ZM207.646 192.004L208.842 196.481L208.821 196.518C208.4 197.318 209.504 198.225 210.158 197.554L210.224 197.483C211.001 196.68 212.194 197.759 212.209 198.613C212.23 199.815 211.447 200.745 210.515 201.359L210.449 201.401L210.278 201.508C209.512 202.014 210.092 203.071 210.933 202.942C211.974 202.783 212.827 201.958 213.353 200.927C213.915 201.088 214.554 201.068 215.146 201.399C216.638 202.233 215.78 203.693 214.809 204.574L214.769 204.61L214.69 204.679C212.908 206.198 210.483 206.726 208.196 206.839L208.064 206.845C205.754 206.944 202.745 206.977 200.765 205.619C199.533 204.773 199.176 203.574 200.219 202.439C200.808 201.797 201.404 201.149 202.017 200.524C202.934 200.961 203.753 200.784 204.691 200.37C204.811 200.316 204.745 200.132 204.627 200.132C204.109 200.132 202.21 199.171 202.118 198.557C202.033 197.989 203.083 197.51 203.594 197.236L203.668 197.195L203.732 197.158C204.267 196.834 204.77 196.457 205.229 196.034C206.396 194.96 207.244 193.613 207.614 192.138L207.646 192.004Z" fill="#C5E9BF"/>
<path fill-rule="evenodd" clip-rule="evenodd" d="M95.8214 106.22C96.869 103.587 100.411 104.61 100.016 107.376C99.7794 109.033 98.872 110.783 98.0569 112.235C97.3932 113.417 96.6362 114.571 95.6098 115.456C97.4369 117.161 99.3335 118.804 101.278 120.363C103.4 122.065 105.632 123.633 107.938 125.075C109.961 126.339 112.074 127.459 113.981 128.901C115.753 130.242 117.368 131.855 118.19 133.961C119.065 136.203 118.685 138.518 118.04 140.759L117.966 141.012C117.308 143.232 116.168 145.908 117.749 147.999C118.553 149.064 119.723 149.818 120.733 150.669C121.631 151.426 122.474 152.248 123.247 153.132C124.932 155.058 126.302 157.226 127.167 159.641L127.245 159.861C127.986 161.999 128.528 164.618 127.526 166.718C127.239 167.319 126.312 167.124 126.151 166.538C125.787 165.21 125.806 163.82 125.501 162.474C125.183 161.074 124.655 159.745 123.965 158.488C122.629 156.056 120.821 153.978 118.684 152.221L118.045 151.701C116.378 150.333 114.847 148.882 114.509 146.619C114.147 144.197 115.117 141.889 115.741 139.597C116.176 137.999 116.318 136.468 115.848 135.024C115.274 135.961 114.49 136.851 113.871 137.644C112.637 139.225 111.392 140.796 110.149 142.369C108.876 143.983 107.634 145.623 106.451 147.304C105.921 148.057 105.398 148.813 104.876 149.571C104.484 150.14 103.937 150.709 103.509 151.29C103.613 151.601 103.605 151.959 103.417 152.213C101.149 155.277 97.9224 148.884 97.0809 147.268C95.3673 143.979 94.092 140.484 92.3727 137.195C90.5912 133.785 88.5625 130.467 86.3015 127.354C84.9338 125.471 83.401 123.703 82.1498 121.76C79.2024 124.433 75.3238 126.225 71.7613 127.849C67.8471 129.634 63.7806 131.092 59.7674 132.641L58.5819 133.101C51.6671 135.8 44.5833 138.765 38.8357 143.558C32.0818 149.191 28.0862 157.042 25.1116 165.172C21.6874 174.531 18.8545 184.143 16.2137 193.749C14.8623 198.664 13.5801 203.601 12.3747 208.554C11.3124 212.917 10.4319 217.324 9.20228 221.643C11.6961 221.555 14.5404 222.52 16.6695 222.799C26.3731 224.069 35.9461 226.094 45.1074 229.599C46.239 230.032 46.5664 231.163 46.32 232.079C46.9726 231.894 47.6247 231.708 48.2773 231.525C47.5623 230.429 47.9036 228.47 47.9598 227.256L47.9632 227.173C48.021 225.555 48.1966 223.935 48.3104 222.32C48.5272 219.241 48.8093 216.185 49.1845 213.124L49.2803 212.358C49.7055 209.028 50.0198 205.678 50.4838 202.353L50.5386 201.973C50.3161 201.122 50.0571 200.282 49.7852 199.445C49.0608 197.217 48.0383 195.119 47.1422 192.961C47.0366 192.707 47.3985 192.561 47.5677 192.713C49.0852 194.078 50.2907 195.81 51.2591 197.622C51.2759 197.536 51.2907 197.451 51.3082 197.365L51.4187 196.821C51.6912 195.495 52.0227 194.099 52.8364 193.023C52.9231 192.909 53.0944 192.885 53.1764 193.023C53.9552 194.341 54.0423 196.01 54.1621 197.51C54.2976 199.206 54.3147 200.924 54.2907 202.625C54.2441 205.949 54.0097 209.283 53.8231 212.601C53.6399 215.863 53.2803 219.083 52.8168 222.312L52.7287 222.918C52.5022 224.455 52.3167 226.011 52.0178 227.537L51.9334 227.953C51.7737 228.71 51.6754 229.777 51.3574 230.664C59.5397 228.382 67.7346 226.152 75.9451 223.961C81.8792 222.377 87.8195 220.817 93.7574 219.247C94.0707 218.682 94.4609 218.155 94.9478 217.684C96.552 216.13 98.6779 215.437 100.628 216.633C100.786 216.73 100.8 216.979 100.628 217.073C100.254 217.277 99.8799 217.486 99.5123 217.705L103.078 216.739C105.743 216.017 108.44 215.114 111.167 214.611C116.191 212.131 121.595 210.337 126.887 208.563L127.511 208.352C130.221 207.428 133.024 206.394 135.823 205.882C137.873 205.507 140.279 205.96 141.103 208.059C142.147 208.747 143.128 209.555 144.076 210.35C144.761 210.924 145.417 211.535 146.085 212.13L146.208 212.238C146.754 212.711 147.186 213.028 147.32 213.782C147.389 214.172 147.142 214.698 146.662 214.646C145.192 214.489 143.997 212.786 143.001 211.769C142.231 210.983 141.455 210.17 140.752 209.306C140.343 209.529 139.781 209.489 139.52 208.995C138.168 206.435 134.464 208.209 132.415 208.816L129.479 209.685C128.011 210.12 126.544 210.557 125.079 211.002C121.054 212.225 117.048 213.593 112.985 214.715C113.349 215.115 113.299 215.826 112.608 216.096C109.428 217.344 105.94 217.989 102.636 218.845C100.551 219.386 98.4663 219.93 96.3826 220.478C96.0253 221.056 95.7683 221.711 95.6601 222.473C95.2625 225.276 96.0294 228.51 96.7764 231.22L96.889 231.625C97.5031 233.804 98.4066 236.476 100.287 237.852C100.746 238.187 101.33 238.421 101.919 238.474C105.6 236.579 109.281 234.685 112.964 232.794C113.646 232.444 114.276 232.918 114.429 233.482C115.728 233.269 117.023 232.933 118.203 232.532C120.186 231.859 121.734 230.575 123.593 229.687C127.19 227.969 130.863 230.079 134.083 231.684L134.825 232.048C136.269 232.749 139.273 234.095 139.966 232.179C140.636 230.325 138.517 228.344 137.149 227.509C135.518 226.514 133.619 225.982 131.775 225.539C130.723 225.285 129.657 225.079 128.585 224.928C127.369 224.757 126.114 224.782 124.943 224.388C124.361 224.192 124.272 223.268 124.943 223.116C126.745 222.706 128.896 223.153 130.776 223.61L131.759 223.852C133.654 224.317 135.567 224.901 137.292 225.828C138.547 226.503 139.872 227.527 140.737 228.782C141.488 228.084 142.423 228.107 143.397 228.366L143.926 228.513C144.799 228.755 145.507 228.922 146.356 228.754C146.47 228.136 146.585 227.518 146.708 226.9C147.919 220.822 149.246 214.768 150.711 208.746C153.238 198.358 156.162 188.085 159.459 177.917L159.79 176.901C160.55 174.575 161.162 172.041 162.387 169.905C163.547 167.884 165.404 166.721 167.611 166.104C170.115 165.405 172.746 165.039 175.301 164.567C175.871 164.462 176.442 164.362 177.012 164.258C176.53 163.388 176.171 162.4 175.847 161.642L175.79 161.51C175.094 159.923 174.468 158.307 173.864 156.682L173.412 155.461C172.322 152.52 171.196 149.628 169.663 146.877C168.049 143.982 165.908 141.615 163.239 139.657C157.798 135.662 151.239 133.625 145.961 129.357C145.745 129.182 146.022 128.883 146.241 128.993C149.805 130.784 153.652 132.002 157.359 133.459L158.09 133.748C161.02 134.909 163.995 136.174 166.531 138.054C169.359 140.151 171.585 142.755 173.259 145.851C174.908 148.904 175.963 152.32 177.127 155.581L177.438 156.449C177.908 157.752 178.392 159.051 178.948 160.319C179.389 161.325 180.212 162.474 180.586 163.623C181.61 163.446 182.633 163.268 183.657 163.097C205.847 159.392 228.284 157.215 250.772 156.578C251.652 156.554 252.107 157.393 251.977 158.16C249.819 170.921 247.901 183.726 245.797 196.496C244.878 202.07 243.942 207.64 242.983 213.206C242.497 216.027 241.936 218.836 241.476 221.66C241.104 223.942 240.835 226.24 240.197 228.468C239.625 230.466 238.748 232.393 237.307 233.917C235.753 235.56 233.585 236.355 231.402 236.731C225.861 237.685 220.177 238.074 214.591 238.709L184.851 242.093C185.285 246.043 185.318 249.932 185.119 253.928L185.005 256.11C184.912 257.865 184.801 259.622 184.549 261.359C184.233 263.537 183.236 265.382 181.768 267.009C180.42 268.504 178.783 269.779 177.19 271C175.537 272.269 173.828 273.493 171.884 274.278L171.632 274.378C169.927 275.044 166.727 276.075 164.396 275.698C164.701 277.225 165.291 278.866 164.768 280.377C164.525 281.079 163.608 281.428 163.046 280.832C161.933 279.649 161.846 278.086 161.582 276.543C161.308 274.937 161.071 273.325 160.861 271.71C160.455 268.586 160.138 265.434 160.042 262.283C159.943 259.048 159.981 255.809 160.155 252.577C160.245 250.918 160.356 249.259 160.567 247.61C160.656 246.907 160.748 246.203 160.853 245.502C160.892 245.246 160.934 244.991 160.98 244.737L158.31 245.038C154.217 245.495 150.122 245.908 146 245.972C145.512 245.98 145.137 245.757 144.891 245.434C144.63 245.86 144.174 246.164 143.522 246.162C137.766 246.14 132.405 244.258 127.17 242.04C124.531 240.921 121.933 239.71 119.29 238.601C116.823 237.566 114.185 236.828 111.778 235.662L105.452 238.98C105.405 239.143 105.346 239.297 105.283 239.427C104.871 240.267 104.059 240.723 103.229 241.067C102.433 241.397 101.609 241.5 100.806 241.417C96.008 243.931 91.2092 246.442 86.4072 248.948L81.6041 251.452C72.0346 256.435 62.5029 261.499 52.8732 266.364L52.1642 266.721C48.8381 268.389 45.2665 270.08 41.5753 271.341C41.5096 272.275 41.5511 273.184 41.6293 274.173L41.6482 274.388C41.7582 275.557 41.9942 277.021 41.0567 277.853C40.5691 278.286 39.698 278.288 39.3663 277.635C38.7646 276.452 39.3049 274.587 39.4955 273.302C39.5631 272.845 39.6456 272.375 39.7676 271.919C35.5359 273.179 31.1761 273.79 26.8699 273.083C22.6773 272.394 19.4301 269.753 16.8122 266.523C14.0495 263.113 12.0863 259.14 11.0329 254.881C9.83414 250.035 9.75586 245.03 9.78401 240.065C9.81389 234.779 10.0094 229.467 10.6524 224.216C9.94797 224.05 9.16672 223.907 8.45486 223.957C8.10226 224.521 7.4183 224.758 6.80027 224.685C5.45631 226.167 8.86524 227.682 9.95463 228.061C10.3329 228.193 10.2924 228.808 9.85611 228.789L9.58129 228.776C7.89797 228.686 6.15887 228.399 5.16914 226.835C4.37605 225.581 4.61432 224.095 5.55976 223.073C6.18422 217.169 7.67707 211.419 9.06647 205.66C10.4299 200.006 11.9463 194.39 13.5534 188.801L14.274 186.3C16.8044 177.537 19.4494 168.704 22.94 160.289C24.683 156.088 26.6909 151.963 29.4126 148.3C31.9497 144.885 34.9451 141.962 38.3881 139.467C44.8067 134.813 52.3382 132.002 59.7383 129.323L60.0696 129.203C63.9044 127.816 67.7299 126.412 71.5211 124.909C74.8739 123.58 78.0861 121.895 81.4232 120.546C81.3148 120.349 81.2101 120.15 81.1093 119.949L81.0476 120.001C81.0371 120.009 81.0263 120.017 81.015 120.025C80.6794 120.257 80.1854 120.143 79.9088 119.882C79.128 119.145 79.3923 118.327 79.9135 117.563L79.9814 117.466C80.619 116.573 81.1876 115.629 81.776 114.703L82.1445 114.124C83.1321 112.578 84.17 111.022 85.4869 109.744C86.0968 109.152 86.7645 108.709 87.4719 108.379C87.4114 108.251 87.9418 107.989 88.0921 108.121C90.3334 107.301 92.9119 107.473 95.3554 107.699M183.412 242.256L180.296 242.611C176.868 243.001 173.438 243.378 170.008 243.751L162.558 244.561C162.539 244.986 162.487 245.401 162.478 245.722C162.429 247.375 162.393 249.03 162.359 250.684C162.29 253.999 162.365 257.318 162.584 260.627C162.795 263.834 163.074 267.041 163.507 270.226L163.596 270.862L163.647 271.197C164 271.231 164.347 271.399 164.636 271.744C165.266 272.496 167.548 271.765 168.439 271.448C169.904 270.927 171.284 270.046 172.558 269.162C173.801 268.299 174.921 267.294 175.997 266.234L176.878 265.363C177.753 264.493 178.63 263.566 179.167 262.471C179.894 260.987 179.988 259.164 180.202 257.548C180.464 255.559 180.777 253.571 181.108 251.592M92.9527 221.381L92.6295 221.466C80.8883 224.586 69.1647 227.798 57.3876 230.78C51.5593 232.256 45.7035 233.625 39.8681 235.073L38.9233 235.309C34.3198 236.472 29.6611 237.873 26.1358 241.212C26.0057 241.335 25.8168 241.146 25.9393 241.015C29.7386 236.971 35.1421 235.258 40.3303 233.774C41.2893 233.5 42.2496 233.232 43.2089 232.959C36.153 230.444 28.9857 228.255 21.653 226.695C19.7649 226.293 17.8547 225.998 15.968 225.594C14.6522 225.313 13.3673 224.906 12.0654 224.568L11.0413 224.31L11.0277 227.547C11.0107 232.131 11.0188 236.711 11.2527 241.295L11.2969 242.144C11.5698 247.244 11.9957 252.451 13.8058 257.26C15.2767 261.168 17.6211 264.85 20.6871 267.697C22.2385 269.137 23.9064 270.258 25.9682 270.812C27.8825 271.326 29.8882 271.386 31.8561 271.249C41.2955 270.59 49.6981 265.463 57.8977 261.217C71.3095 254.273 84.7227 247.333 98.1481 240.415C97.7851 240.167 97.4434 239.881 97.1325 239.56C95.3322 237.701 94.3826 235.155 93.7589 232.691C93.0949 230.067 92.6979 227.255 92.6517 224.546M110.035 243.096C110.154 243.032 110.291 243.112 110.296 243.246C110.338 244.271 109.771 245.282 109.348 246.206L109.303 246.305C108.789 247.449 108.225 248.578 107.643 249.689C106.479 251.909 105.269 254.105 104.006 256.271C101.467 260.626 98.6451 264.799 95.3098 268.591C94.5564 269.448 93.3174 268.35 93.8009 267.427C96.1318 262.98 98.8491 258.781 101.646 254.619C103.046 252.535 104.446 250.449 105.86 248.375C106.45 247.509 107.047 246.646 107.661 245.797L108.031 245.289M249.285 159.125C237.503 159.481 225.735 160.25 214.008 161.454C203.103 162.574 192.238 164.064 181.434 165.923C179.177 166.311 176.923 166.715 174.672 167.135L173.322 167.388C171.071 167.815 168.32 167.991 166.316 169.194C164.202 170.462 163.631 173.112 162.928 175.297C162.101 177.867 161.296 180.444 160.512 183.028C157.399 193.285 154.555 203.632 152.018 214.047C150.759 219.217 149.642 224.415 148.464 229.604C147.418 234.213 146.264 238.771 145.059 243.335C145.207 243.22 145.389 243.132 145.609 243.085C151.597 241.811 157.708 241.257 163.785 240.554L164.373 240.485C170.659 239.746 176.945 239.012 183.235 238.305L224.88 233.621C227.336 233.345 229.967 233.308 232.357 232.649C236.421 231.528 237.374 226.985 238.055 223.366L238.076 223.257C240.132 212.325 241.768 201.299 243.685 190.339M146.028 230.627C144.411 230.521 142.198 229.04 140.971 229.146C141.615 230.227 141.906 231.459 141.535 232.775C140.502 236.437 135.831 234.542 133.581 233.424C131.736 232.506 129.955 231.383 127.913 230.953C125.599 230.467 124.032 231.387 122.077 232.447C120.472 233.318 118.723 233.943 116.925 234.267C115.969 234.439 115.061 234.458 114.155 234.391C114.1 234.435 114.039 234.476 113.969 234.513L113.489 234.765C115.657 234.864 117.866 235.533 119.883 236.146C121.974 236.78 124.027 237.545 126.069 238.327L128.077 239.099C133.032 240.997 138.16 242.798 143.522 242.782C143.908 242.781 144.223 242.888 144.472 243.062M136.982 219.152C138.579 218.957 140.053 219.166 141.33 220.206C142.869 221.46 143.903 223.539 146.116 223.676C146.761 223.716 146.911 224.623 146.27 224.812C144.623 225.3 143.289 224.409 142.167 223.252L141.412 222.464C140.303 221.315 139.28 220.427 137.398 220.496C135.383 220.57 133.364 221.035 131.362 221.272C129.094 221.54 126.826 221.769 124.551 221.966C124.445 221.975 124.427 221.809 124.526 221.784L127.075 221.15M135.44 212.622L135.703 212.596C138.023 212.37 140.144 212.362 142.215 213.609L142.613 213.85C144.48 214.985 146.513 216.322 147.681 218.16C147.872 218.461 147.557 218.815 147.237 218.738C144.992 218.2 143.351 216.553 141.463 215.32C139.345 213.937 137.156 214.165 134.741 214.38C132.402 214.588 130.064 214.874 127.749 215.264C125.573 215.63 123.39 216.208 121.192 216.392L121.192 216.387C120.941 216.387 120.798 216.01 121.054 215.882C123.284 214.768 125.868 214.241 128.294 213.732M205.901 189.697C205.677 188.625 206.996 188.127 207.607 188.978L207.737 189.158C209.058 190.967 210.968 193.238 210.871 195.539C212.032 195.564 213.236 196.27 213.688 197.317C213.897 197.802 213.968 198.377 213.922 198.971C214.977 199.053 216.128 199.746 216.773 200.42C217.843 201.539 217.927 203.119 217.16 204.426C215.487 207.274 211.833 208.31 208.748 208.542L208.638 208.549C205.452 208.77 200.861 208.71 198.676 205.977C196.569 203.34 198.898 201.205 201.287 200.046C200.665 199.478 200.343 198.664 200.646 197.805C201.177 196.296 203.054 195.714 204.114 194.665C205.407 193.386 206.262 191.631 205.921 189.797M207.652 192.016C207.301 193.543 206.438 194.939 205.235 196.046C204.776 196.469 204.273 196.846 203.738 197.17L203.674 197.207C203.2 197.473 202.034 197.972 202.124 198.569C202.216 199.183 204.115 200.144 204.633 200.144C204.751 200.144 204.817 200.328 204.697 200.382C203.759 200.796 202.94 200.974 202.023 200.536C201.41 201.161 200.814 201.809 200.225 202.451C199.182 203.586 199.539 204.785 200.771 205.631C202.751 206.989 205.76 206.956 208.07 206.857C210.395 206.758 212.88 206.24 214.696 204.691L214.775 204.622C215.762 203.744 216.664 202.257 215.152 201.411C214.561 201.08 213.921 201.1 213.359 200.939C212.833 201.97 211.98 202.795 210.939 202.955C210.098 203.083 209.518 202.026 210.284 201.52L210.456 201.413C211.417 200.8 212.237 199.855 212.215 198.625C212.2 197.771 211.007 196.692 210.23 197.495L210.195 197.533C209.545 198.266 208.399 197.342 208.827 196.53L208.848 196.494M56.0161 149.551C56.0131 149.368 56.2712 149.299 56.3613 149.458C57.8705 152.113 58.6594 155.368 59.4633 158.293C60.3053 161.357 60.9851 164.453 61.5957 167.571C62.8325 173.884 63.4915 180.162 63.5362 186.597C63.5424 187.516 62.0456 187.76 61.8991 186.819C60.927 180.559 59.9957 174.293 59.0161 168.036C58.5233 164.888 57.9497 161.753 57.4008 158.615M70.9565 154.176C70.8454 153.81 71.3783 153.687 71.5146 154.022C74.5432 161.457 75.5689 169.882 73.6245 177.725C73.3269 178.925 71.5696 178.405 71.7941 177.22M110.023 147.57C110.008 147.296 110.364 147.253 110.498 147.441C111.933 149.463 112.528 152.171 115.046 153.216C116.303 153.738 117.717 153.647 118.828 154.528C119.571 155.118 120.14 156.048 119.583 156.941C119.403 157.229 118.9 157.374 118.656 157.06C118.3 156.604 118.111 156.057 117.628 155.715C116.945 155.232 116.025 155.202 115.243 154.975C114.231 154.682 113.339 154.169 112.609 153.406M133.998 113.845C134.146 113.77 134.288 113.818 134.383 113.946C134.518 114.128 134.501 114.305 134.336 114.43C134.557 114.882 134.818 116.013 134.855 116.178C135.006 116.846 135.167 117.509 135.335 118.173C135.674 119.51 135.972 120.858 136.311 122.196C136.671 123.614 137.1 125.018 137.577 126.401C137.608 126.49 137.642 126.582 137.677 126.674L137.732 126.814L137.745 126.793C137.842 126.64 138.044 126.747 138.02 126.909C137.998 127.057 137.968 127.204 137.943 127.351L137.993 127.484C138.305 128.324 138.519 129.209 137.946 129.95C137.732 130.228 137.496 130.392 137.202 130.441C136.731 131.994 136.14 133.518 135.507 134.982L135.322 135.409C134.391 137.545 133.398 139.653 131.916 141.471C130.297 143.456 128.071 144.812 126.662 146.987C126.006 147.999 125.55 149.063 125.179 150.206L125.04 150.64C124.777 151.448 124.474 152.231 123.716 152.705C123.474 152.857 123.111 152.808 122.916 152.602C121.361 150.958 122.989 147.886 123.926 146.294C125.23 144.08 127.116 142.663 129.005 140.992C131.04 139.192 132.339 136.783 133.595 134.41C134.364 132.956 135.107 131.471 135.889 130.01C135.072 129.288 134.811 127.854 134.534 126.857L134.509 126.768C134.051 125.171 133.688 123.533 133.458 121.888C133.237 120.306 133.145 118.747 133.203 117.156L133.22 116.751M137.036 121.374C136.855 121.127 137.154 120.846 137.402 120.898C138.908 121.209 140.38 122.121 141.731 122.858L141.875 122.936C142.954 123.518 144.04 124.23 144.606 125.361C145.222 126.589 145.171 128.004 145.087 129.338L145.079 129.463C144.976 131.064 144.96 132.727 144.621 134.299C144.448 135.104 143.719 135.33 143.096 135.14C142.355 137.481 140.273 139.205 138.752 141.052C136.812 143.407 137.177 146.586 137.38 149.422C137.462 150.57 136.034 150.896 135.298 150.284L133.603 148.876C133.321 148.641 133.039 148.405 132.758 148.169C132.517 147.966 132.278 147.762 132.042 147.555L131.688 147.243C131.531 147.103 130.84 146.33 130.637 146.298C130.148 146.22 128.984 147.511 128.586 147.916L128.535 147.967C127.786 148.702 127.108 149.492 126.477 150.331C126.361 150.485 126.134 150.357 126.217 150.179C126.783 148.969 127.44 147.811 128.22 146.727L128.378 146.511C128.897 145.812 129.595 144.576 130.511 144.369C131.63 144.117 132.748 145.24 133.562 145.863L133.614 145.902C134.001 146.192 134.384 146.488 134.766 146.786C134.726 144.674 134.993 142.541 136.083 140.722C136.852 139.438 138.003 138.488 138.989 137.385C140.086 136.157 140.659 134.648 141.652 133.369C141.78 133.205 141.956 133.116 142.147 133.088C142.185 132.06 142.336 131.022 142.453 130.005L142.487 129.7C142.606 128.595 142.885 127.246 142.344 126.211C141.833 125.234 140.661 124.544 139.792 123.88L139.083 123.331M88.1674 109.69C87.7141 109.953 87.2904 110.279 86.906 110.687C85.6958 111.97 84.8306 113.568 83.9886 115.105C83.5353 115.932 83.0983 116.769 82.6412 117.595C82.4424 117.954 82.238 118.309 82.0313 118.664C81.9358 118.828 81.6518 119.153 81.5111 119.353C81.6675 119.572 81.8291 119.788 81.9941 120.001C82.057 120.083 86.398 124.811 87.9111 126.662C90.2282 129.497 92.2994 132.491 94.07 135.696C95.8038 138.835 97.1239 142.158 98.73 145.357C99.534 146.959 100.432 148.549 101.576 149.935C101.62 149.989 101.667 150.041 101.712 150.094C102.149 148.914 103.268 147.651 103.818 146.925L103.869 146.857C105.116 145.176 106.433 143.546 107.778 141.944C109.006 140.481 110.266 139.049 111.557 137.642L112.042 137.115C112.941 136.144 114.083 134.691 115.399 133.997C115.258 133.745 115.095 133.497 114.907 133.251C113.674 131.64 111.931 130.471 110.211 129.415L109.096 128.737C104.891 126.175 100.752 123.494 97.1021 120.165C95.171 118.403 93.2665 116.558 91.6433 114.503L91.0692 113.777M95.1828 108.422C93.2139 108.587 91.0877 108.548 89.2682 109.189C90.8857 110.719 92.4233 112.37 94.0028 113.925C94.1433 112.873 94.4307 111.834 94.6742 110.809" fill="black"/>
<path fill-rule="evenodd" clip-rule="evenodd" d="M163.594 78.2379C165.123 67.2 161.857 56.5477 157.626 46.4597C157.393 45.8454 157.025 45.3133 156.551 44.935C144.609 20.8663 127.063 18.6868 102.584 20.3443C101.86 20.3283 101.817 20.3411 101.268 20.0954C101.177 10.318 90.0107 5.13896 81.513 8.36492C43.8257 25.8785 55.6762 75.184 63.1758 107.373C65.8514 119.834 68.5277 132.294 71.2038 144.754C71.2937 145.171 71.483 145.531 71.7349 145.835C71.3462 145.982 70.9574 146.12 70.5759 146.25C69.7052 146.547 70.0512 147.845 70.9574 147.634C71.8455 147.428 72.7013 147.152 73.548 146.851C74.868 147.137 75.9747 146.275 77.011 145.587C89.146 140.788 94.2404 125.017 97.353 113.399C110.008 122.328 130.228 129.015 144.698 120.986C158.255 112.822 163.138 95.7904 162.175 80.7584C163.164 80.3031 163.563 79.3105 163.589 78.2757H163.595C163.595 78.2631 163.594 78.2505 163.594 78.2379V78.2379Z" fill="#D08B5B"/>
<path fill-rule="evenodd" clip-rule="evenodd" d="M96.0994 117.866C95.9844 118.132 95.8615 118.417 95.7318 118.719C94.9097 120.635 93.8141 123.244 92.7189 126.02C91.864 128.187 91.0116 130.45 90.2904 132.562C89.3941 134.204 88.4103 135.777 87.3257 137.241C87.571 136.205 87.9028 135.055 88.2851 133.851C89.1165 131.233 90.2221 128.262 91.3236 125.47C92.4258 122.676 93.5275 120.052 94.3534 118.127C94.7664 117.165 95.1107 116.377 95.3518 115.829C95.4521 115.601 95.5345 115.415 95.5967 115.275L93.4233 110.263L82.9901 95.6142C82.956 95.607 82.9195 95.5991 82.8806 95.5903C82.619 95.5317 82.2504 95.4384 81.8101 95.2981C80.9322 95.0182 79.756 94.5468 78.5742 93.7791C76.1889 92.2294 73.789 89.4683 73.789 84.7497C73.789 80.3082 74.3667 78.0479 75.052 76.8802C75.3617 76.3525 75.7076 76.0239 76.0515 75.8359L74.4693 59.6139L74.4572 59.4893L74.4861 59.3676L75.2158 59.541C74.4861 59.3676 74.4862 59.3674 74.4862 59.3672L74.4864 59.3664L74.4871 59.3634L74.4899 59.3518L74.5008 59.3064L74.5432 59.1306C74.5805 58.9767 74.6356 58.7509 74.7069 58.4625C74.8497 57.8858 75.0577 57.0585 75.3189 56.0546C75.8411 54.0474 76.577 51.3313 77.4307 48.4993C78.2837 45.6698 79.2581 42.7118 80.2583 40.2255C80.7583 38.9826 81.2694 37.8461 81.78 36.8974C82.2844 35.9602 82.8136 35.1579 83.3636 34.6226C85.2728 32.764 89.093 29.7713 92.399 27.2678C94.0595 26.0103 95.6026 24.8671 96.7304 24.0383C97.2943 23.6239 97.7547 23.288 98.0741 23.0555L98.3221 22.8753L98.3425 22.7473C98.3857 22.4724 98.4453 22.0776 98.5101 21.6009C98.6399 20.6459 98.7898 19.3687 98.8724 18.0694C98.9555 16.7616 98.9679 15.4686 98.8362 14.4674C98.7701 13.9646 98.6726 13.5766 98.5537 13.3091C98.4311 13.0336 98.3313 12.984 98.3181 12.9788C97.1921 12.5307 94.6623 11.2949 92.4496 10.1906C91.3354 9.63442 90.2896 9.10555 89.5225 8.71579C89.139 8.52088 88.825 8.3607 88.6068 8.24921L88.4239 8.15568L82.2917 8.09497C85.3723 7.12567 88.739 7.20865 91.7699 8.17172C92.1974 8.387 92.6524 8.61534 93.1195 8.84845C94.0847 9.33019 95.0923 9.82784 96.0105 10.2716C97.9618 11.6605 99.5292 13.5191 100.43 15.769C100.448 16.5455 100.42 17.3673 100.369 18.1646C100.284 19.5119 100.129 20.8272 99.9964 21.8029C99.93 22.2915 99.8689 22.6967 99.8243 22.9804C99.8019 23.1223 99.7837 23.2339 99.771 23.3104L99.7563 23.3983L99.7523 23.4214L99.7513 23.4276L99.751 23.4293L99.7509 23.4298C99.7508 23.43 99.7508 23.4301 99.0119 23.3018C99.4508 23.9099 99.4508 23.91 99.4507 23.91L99.4504 23.9103L99.4489 23.9114L99.4428 23.9157L99.4186 23.9332L99.3231 24.0023C99.2392 24.0631 99.1155 24.1529 98.9566 24.2685C98.6388 24.4997 98.1804 24.8342 97.6186 25.2471C96.4948 26.0729 94.9578 27.2116 93.3045 28.4636C89.9828 30.979 86.2404 33.9154 84.4099 35.6974C84.0248 36.0722 83.5819 36.7144 83.1008 37.6083C82.6259 38.4907 82.1381 39.5719 81.6499 40.7853C80.6738 43.2118 79.7142 46.1215 78.8669 48.9322C78.0204 51.7403 77.2897 54.4369 76.7705 56.4323C76.511 57.4297 76.3045 58.2512 76.163 58.823C76.0922 59.1088 76.0377 59.3322 76.001 59.4839L75.9745 59.5937L77.6052 76.3132L77.7031 77.3172L76.7987 77.1386L76.7962 77.1397C76.752 77.159 76.5725 77.2529 76.3457 77.6393C75.8711 78.448 75.289 80.3697 75.289 84.7497C75.289 88.8528 77.3329 91.1839 79.3914 92.5212C80.4315 93.1969 81.4772 93.6176 82.2657 93.8689C82.6587 93.9942 82.9844 94.0764 83.2089 94.1267C83.321 94.1518 83.4075 94.169 83.4643 94.1795C83.4782 94.1821 83.4903 94.1843 83.5006 94.1862C83.5112 94.1881 83.5198 94.1896 83.5264 94.1907L83.5396 94.1928L83.5403 94.193L83.5409 94.1931L83.5413 94.1931L83.5415 94.1932L83.8536 94.241L84.0375 94.4992L94.6909 109.457L94.7366 109.522L94.768 109.594L96.9935 114.726C96.9278 114.965 96.8612 115.206 96.7936 115.448C96.5725 116.242 96.3416 117.049 96.0994 117.866ZM99.0119 23.3018L99.7508 23.4301L99.6986 23.7311L99.4508 23.9099L99.0119 23.3018ZM71.6819 147.45C72.3147 147.275 72.9338 147.069 73.5481 146.851C74.4396 147.044 75.2338 146.714 75.9747 146.267C75.5278 146.363 75.1061 146.449 74.7193 146.523C74.0193 146.657 73.4365 146.755 73.0297 146.82C72.8264 146.852 72.6671 146.875 72.5594 146.891C72.5055 146.899 72.4645 146.905 72.4373 146.908L72.407 146.913L72.3998 146.913L72.3983 146.914L72.1182 146.951L71.9322 147.163L71.6819 147.45Z" fill="#A55728"/>
<path fill-rule="evenodd" clip-rule="evenodd" d="M78.0358 9.28422C80.8336 7.47185 84.4245 6.79728 87.7209 6.92938C89.4789 6.99975 91.1202 7.43803 92.7409 8.09631C94.2432 8.70668 95.5676 9.58348 97.0304 10.2516C97.1192 10.2921 97.0521 10.4168 96.9681 10.3998C95.236 10.0502 93.2023 10.2614 91.446 10.5117L91.2713 10.5368C89.5451 10.7874 87.7885 10.9171 86.087 11.3149C82.9527 12.0475 80.0373 13.6438 78.317 16.4204C76.0708 20.0466 75.495 24.7405 75.7353 28.9242C75.8568 31.041 76.2741 33.1235 76.9239 35.1416C77.3141 36.3527 78.2205 37.5712 78.644 38.8421C78.9662 38.2406 79.2988 37.6451 79.6432 37.0567C78.0741 36.3171 77.6341 34.2618 77.5528 32.407C77.3111 32.1734 77.1555 31.8354 77.1504 31.525C77.1365 30.6907 77.3328 29.9353 77.6667 29.2442C77.8573 27.2867 78.2612 25.335 78.9566 23.5007C81.6857 16.2989 88.8856 9.80793 97.0504 10.4492C99.2943 10.6255 101.478 11.5783 102.638 13.604C103.57 15.2307 103.576 17.193 102.933 18.9231C102.743 19.4367 102.495 19.9004 102.204 20.3234C103.086 20.0997 103.969 19.8851 104.852 19.6725C107.912 18.9347 110.989 18.3567 114.123 18.0352C118.391 17.5977 122.746 18.2596 126.657 19.9631C127.73 20.2389 128.797 20.5352 129.858 20.8518C134.527 22.2439 139.318 24.0622 143.089 27.2397C144.824 28.7017 146.066 30.4025 147.073 32.2702C150.849 35.6359 154.458 39.4513 157.007 43.8158C162.257 52.8082 163.511 63.9316 163.726 74.1546C163.925 83.5459 163.1 93.0334 161.34 102.261C160.541 106.449 159.249 110.341 156.636 113.775C153.727 117.599 149.846 120.613 145.491 122.634C136.626 126.75 125.653 127.349 117.036 122.25C114.444 120.716 116.778 116.718 119.396 118.212C127.903 123.067 138.76 121.958 146.946 116.811C150.404 114.637 153.384 111.664 155.277 108.023C156.66 105.364 157.253 102.315 157.767 99.3454L158.04 97.7572C159.626 88.6267 160.343 79.2614 159.961 69.9988C159.581 60.7592 158.115 50.7516 152.882 42.8965C150.121 38.7532 146.601 35.1236 142.903 31.8139C142.644 31.5813 142.383 31.3497 142.123 31.1188C140.678 30.2504 139.18 29.4921 137.706 28.845L137.392 28.7094C136.545 28.348 135.359 27.8812 134.259 27.5079C132.687 26.9743 131.089 26.5002 129.484 26.0731C128.643 25.8491 127.798 25.6437 126.951 25.4474C127.247 25.7182 127.54 25.9916 127.829 26.2718C129.195 27.5995 130.279 29.1773 131.574 30.5694C131.721 30.7265 131.536 30.9556 131.35 30.86C129.38 29.8492 127.195 29.1948 125.138 28.3758C123.193 27.6015 121.303 26.7101 119.393 25.8558C118.914 25.6415 118.437 25.4126 117.961 25.1861C116.082 25.2054 114.204 25.2496 112.329 25.3565C114.595 26.9696 116.665 28.8761 118.379 30.9667C118.521 31.1388 118.392 31.4146 118.154 31.3536C114.565 30.4347 111.152 29.0842 107.741 27.669L106.109 26.9896V26.9896C104.91 26.9289 103.709 26.9005 102.507 26.9183L101.925 26.928C100.664 26.952 99.4047 27.002 98.1546 27.1931C97.8573 27.2383 97.5659 27.2812 97.2765 27.3207C95.5173 28.0388 93.8244 28.9045 92.3012 30.0455L92.698 30.022V30.022C95.1064 29.885 97.562 30.0924 99.8943 30.7141C104.426 31.9228 108.293 34.8332 111.107 38.5441C111.191 38.6552 111.028 38.8098 110.917 38.7342C107.377 36.3107 103.271 35.09 99.0645 34.427C97.0311 34.1063 94.937 33.9959 92.8841 34.1556C91.1844 34.2877 89.4261 34.8865 87.7349 34.5959C87.2739 35.17 86.8312 35.7613 86.405 36.3658C86.629 36.3515 86.8539 36.3384 87.0804 36.3278C89.509 36.2137 91.9824 36.3695 94.3538 36.9285C99.0904 38.0458 103.048 40.8893 106.669 44.0111C106.741 44.0728 106.648 44.1829 106.571 44.1385C102.644 41.8723 98.0802 41.195 93.632 40.7861C91.392 40.5802 89.1268 40.4868 86.8818 40.6656C85.8534 40.7473 84.8364 40.917 83.8109 41.0224C83.728 41.031 83.6418 41.0333 83.5564 41.0372C82.8131 42.4387 82.1393 43.8654 81.5314 45.2879C83.3867 44.7901 85.3885 44.5289 87.3041 44.6577C91.195 44.9197 95.0543 46.7037 98.1602 48.9854C98.2575 49.0568 98.2032 49.2469 98.0711 49.1971C94.6903 47.9198 91.3389 47.9094 87.8107 48.4022C86.1566 48.6333 84.5193 48.9469 82.9213 49.4388C82.1178 49.6862 81.3235 49.9561 80.561 50.3114C80.2148 50.4724 79.8778 50.66 79.5371 50.8371C79.2645 51.7625 79.0208 52.6966 78.801 53.6364C84.568 53.9616 90.0009 56.6836 94.7291 59.8076C94.8434 59.8831 94.7721 60.0935 94.6308 60.0402C91.8083 58.9752 88.7379 58.4828 85.744 58.1962C83.1262 57.9456 80.5573 58.0819 77.9546 58.1549C77.8151 59.1438 77.7022 60.1357 77.6205 61.1295C78.039 61.2468 78.4496 61.3733 78.8445 61.492C80.143 61.8821 81.4391 62.4073 82.6507 63.0162C85.1119 64.253 87.1063 65.9249 89.113 67.7835C89.2177 67.8805 89.1085 68.0923 88.9666 68.0348C86.6374 67.0933 84.0924 66.4904 81.6405 65.9568C80.3716 65.6807 79.1022 65.4259 77.8244 65.1921C77.7007 65.1693 77.5751 65.1503 77.4496 65.1316C77.4375 67.3974 77.5657 69.6639 77.8482 71.9119L77.903 72.3331C78.0561 73.4709 77.9309 74.5714 77.1775 75.3574C78.2195 74.6648 79.4116 74.185 80.7329 74.0011C84.2122 73.5169 87.4339 74.907 89.6234 77.5959C89.7258 77.7216 89.5678 77.8865 89.4433 77.7759C87.3186 75.8853 84.0443 75.5507 81.4055 76.4408C78.9625 77.2648 77.1259 79.232 76.3899 81.6935C75.6076 84.3093 75.9659 87.1973 77.3923 89.5292C78.103 90.6909 79.1294 91.7294 80.4139 92.2403C80.5724 92.3035 80.7339 92.3561 80.8971 92.4018C81.6724 92.1183 82.5067 92.2467 83.304 92.606L83.4075 92.6546V92.6546C83.9161 92.6517 84.4225 92.6361 84.9147 92.6405C85.8724 92.6497 86.3329 93.6665 85.931 94.4233C86.1589 94.8408 86.3258 95.31 86.526 95.7191C86.8878 96.4574 87.2665 97.191 87.6473 97.9199C88.1858 98.5377 88.7001 99.1772 89.0493 99.9229C89.1925 100.229 89.3278 100.56 89.4315 100.893C89.7308 101.343 90.035 101.79 90.3466 102.236C91.354 103.675 92.415 105.038 93.5915 106.344C94.2987 107.13 95.1123 107.831 95.861 108.583C96.0879 108.613 96.3103 108.768 96.3805 108.99L96.4417 109.203V109.203C96.6829 109.475 96.9138 109.755 97.1217 110.053C97.583 110.714 97.4565 111.385 97.0513 111.869C97.6931 115.873 97.256 120.133 96.3975 124.016C95.8424 126.524 95.1943 129.031 94.3244 131.451C93.8822 132.681 93.3466 133.863 92.6066 134.943C92.2009 135.535 91.6725 136.225 91.0799 136.788C90.9898 137.444 90.8727 138.094 90.7051 138.732C88.7172 146.287 80.5798 148.587 73.7664 149.552C72.4513 149.738 71.1498 149.42 70.4335 148.195C70.2681 147.913 70.1569 147.608 70.0972 147.294C69.8004 147.215 69.515 147.076 69.2589 146.877C69.2162 147.35 69.1668 147.825 69.1043 148.305C68.9485 149.506 67.328 149.867 66.9218 148.6C65.2077 143.257 64.2766 137.622 63.102 132.131C61.9299 126.652 60.621 121.201 59.4099 115.73L57.8764 108.825C54.1346 91.9171 50.6298 74.793 51.49 57.4033C51.9597 47.9109 53.7014 38.4431 57.4294 29.6711C60.5348 22.3636 65.7759 14.1539 74.2424 12.6598C74.3007 12.6497 74.3525 12.6556 74.4009 12.668C75.4064 11.3605 76.6076 10.2092 78.0358 9.28422ZM83.1445 101.193C83.8272 103.458 84.3146 105.78 84.5798 108.149C85.0216 112.099 84.8026 116.145 84.6107 120.105C84.4342 123.743 84.0151 127.412 83.3018 130.985C82.6171 134.415 81.544 137.778 79.9487 140.898C79.6906 141.403 79.4133 141.894 79.122 142.376C80.0042 142.082 80.8008 141.74 81.6304 141.265C82.6746 140.668 83.6302 139.897 84.1529 139.085C84.9919 137.781 85.2734 136.333 85.3961 134.78C85.7117 130.784 85.8576 126.777 86.0589 122.774L86.1035 121.903C86.429 115.649 86.8557 109.236 86.2184 102.976C85.3218 102.741 84.5129 102.278 83.7665 101.698C83.5606 101.538 83.3527 101.369 83.1445 101.193ZM76.3259 93.6203C76.5143 95.5226 76.6946 97.425 76.8578 99.329C77.4368 106.087 77.7946 112.883 77.4654 119.665C77.2941 123.197 76.9499 126.738 76.3548 130.225C76.0866 131.797 75.7623 133.368 75.4001 134.922L75.278 135.44C74.9103 136.98 74.676 138.904 73.4987 140.024L73.5076 140.256V140.256C74.334 139.002 75.0985 137.592 75.6459 136.279C78.0852 130.43 78.5309 124.062 78.9716 117.825C79.2432 113.982 79.4445 110.133 79.7588 106.292L79.9114 104.444C80.0866 102.293 80.2374 100.158 80.2168 98.0093C79.7469 97.3087 79.3652 96.5722 79.1282 95.8161C79.0901 95.6944 79.064 95.5714 79.0457 95.4485C78.0521 94.9776 77.1165 94.3349 76.3259 93.6203ZM89.6779 107.004C90.1681 108.635 90.5681 110.286 90.853 111.945C91.3068 114.585 91.5792 117.242 91.6989 119.907L91.9493 118.965C92.5797 116.61 93.2497 114.251 94.0799 111.966C92.7666 111.046 91.6693 109.602 90.7147 108.395C90.3579 107.944 90.012 107.479 89.6779 107.004ZM70.8703 34.4749C70.3656 36.1041 69.9243 37.7517 69.4685 39.3942C68.3974 43.2525 67.7021 47.2165 67.2196 51.1879C65.2944 67.0444 66.8979 82.9651 68.995 98.7179C69.8639 105.245 70.8086 111.762 71.6194 118.297C71.6409 117.656 71.6589 117.014 71.6705 116.374C71.917 102.504 69.5824 88.8274 68.6475 75.0287L68.5914 74.1879C68.1677 67.7361 67.9085 61.1639 68.6754 54.7356C69.07 51.427 69.7653 48.189 70.6905 44.9918L71.2413 43.1139C71.6135 41.8512 72.0092 40.5548 72.4787 39.2977C72.416 39.1772 72.3562 39.0557 72.3007 38.934C71.651 37.5058 71.1989 36.0045 70.8703 34.4749ZM72.4967 15.7836C67.6507 22.0313 63.5843 28.6682 61.124 36.3018C55.4933 53.7727 56.7504 72.4546 60.0134 90.2627C61.5509 98.6535 63.5337 106.946 65.3428 115.279C63.4062 100.316 60.9089 85.3859 60.5114 70.279C60.2944 62.034 60.7208 53.7504 62.2396 45.6328L62.3295 45.1555C62.9804 41.7248 63.7867 38.0901 65.4374 35.007C66.3337 33.3329 67.3231 31.7707 68.4964 30.2753C68.9912 29.6447 69.5468 29.139 70.1362 28.6766C69.9634 24.3696 70.6147 19.6992 72.4967 15.7836ZM80.403 82.3516C82.8139 82.4464 85.2226 83.1185 87.1211 84.6855C88.6063 85.9109 86.4883 87.982 85.0151 86.7912C83.4132 85.4963 81.9763 84.0255 80.2687 82.8477C80.0652 82.7072 80.121 82.3405 80.403 82.3516ZM76.4034 75.928C75.8674 76.2043 75.3348 76.2601 74.7276 76.111C74.7054 76.1055 74.684 76.0994 74.6631 76.0928L74.539 76.0524C74.5921 76.6273 74.6479 77.2021 74.7032 77.7769C75.1931 77.087 75.7612 76.4623 76.4034 75.928ZM74.0037 41.2384C73.7903 43.0212 73.6513 44.8126 73.5772 46.6067C73.5053 48.3545 73.4753 50.1077 73.4671 51.8615L73.4649 52.6131L73.4681 52.5988C74.297 49.0625 75.4694 45.5822 76.9667 42.2518C76.7089 42.2947 76.4471 42.2878 76.1894 42.2567C75.5997 42.1854 75.0343 41.9239 74.5284 41.6179C74.3439 41.5063 74.1708 41.3762 74.0037 41.2384ZM98.5953 20.5752C97.5649 21.0409 96.5699 21.5762 95.5358 22.0313C93.4851 22.934 91.4787 23.9834 89.5809 25.1748C87.6604 26.3805 85.8102 27.6499 84.1087 29.1536C83.9095 29.3299 83.7119 29.5082 83.5146 29.6862C83.4749 30.0751 83.446 30.4655 83.4329 30.8591C83.4257 31.0707 83.4255 31.2919 83.4282 31.5193C86.6389 27.5422 90.5206 24.4044 95.4451 22.4306C96.2987 22.0883 97.1664 21.7836 98.042 21.5017C98.2504 21.2123 98.4373 20.9051 98.5953 20.5752ZM98.5037 16.7601C97.9311 16.0001 96.2852 16.0621 95.2474 16.2315C93.5693 16.5055 92.0913 17.0922 90.653 17.9416C88.953 18.9451 87.4865 20.3046 86.3391 21.9036C86.9038 21.5851 87.4791 21.2846 88.0665 21.0056L88.469 20.8155C90.6939 19.7726 93.104 18.781 95.5375 18.4577C96.6634 18.308 97.8743 18.0915 99.0119 18.2135C98.9558 17.6606 98.7914 17.1421 98.5037 16.7601Z" fill="black"/>
<path fill-rule="evenodd" clip-rule="evenodd" d="M129.776 106.65C128.116 105.973 126.635 104.843 125.552 103.4C125.176 102.899 125.078 102.369 125.157 101.885C125.246 101.34 125.568 100.846 126.008 100.515C126.449 100.183 127 100.019 127.533 100.102C127.997 100.175 128.458 100.429 128.823 100.955L128.899 101.06C129.543 101.931 130.382 102.645 131.338 103.106C132.259 103.55 133.289 103.757 134.355 103.636C136.386 103.407 137.785 102.309 139.273 100.818C139.457 100.629 139.642 100.435 139.827 100.238C139.944 100.059 140.107 99.9441 140.287 99.8837C140.488 99.8168 140.714 99.8206 140.922 99.893C141.122 99.9629 141.301 100.095 141.421 100.271C141.535 100.439 141.6 100.646 141.579 100.884C141.442 102.429 140.634 103.808 139.487 104.891C138.212 106.094 136.522 106.926 134.932 107.218C133.179 107.54 131.393 107.309 129.776 106.65V106.65ZM135.758 82.8077C137.623 83.941 140.464 86.5838 138.458 89.3935C136.097 91.8709 132.698 89.0304 131.022 87.7457C129.469 86.7501 127.724 89.3108 129.165 90.4733C141.27 99.4352 146.182 83.104 136.701 81.4751C135.657 81.2956 135.27 82.457 135.758 82.8077ZM114.066 72.3826C114.272 69.8255 118.167 69.2448 118.554 71.7752C118.901 74.0419 118.493 76.1242 117.472 78.1649C116.496 80.1146 114.044 79.205 113.859 77.4297C113.61 75.0499 113.938 73.9733 114.066 72.3826ZM143.712 71.2506C144.255 70.5394 145.039 70.054 145.978 70.3283C148.913 71.1859 148.048 75.3521 147.017 77.38C146.457 78.4813 144.647 78.7605 143.829 77.7909C142.496 76.2096 141.857 73.0518 143.552 71.4943C143.598 71.4138 143.649 71.3325 143.712 71.2506ZM117.431 61.1934L117.894 61.1123C119.328 60.8642 121.111 60.6259 122.126 61.7788C122.664 62.3902 122.849 63.5265 122.126 64.1117C120.854 65.1413 119.447 64.7423 117.923 64.8295C116.666 64.9016 115.459 65.1095 114.249 65.4554C111.594 66.2142 109.431 67.5994 107.163 69.1204C106.866 69.3199 106.562 68.9394 106.704 68.6611C108.013 66.0974 110.549 63.9915 113.09 62.7077C114.446 62.0225 115.93 61.4541 117.431 61.1934ZM141.037 60.045L141.392 60.1176C145.253 60.9246 150.269 62.5368 152.098 66.3293C152.167 66.8656 152.094 66.9806 152.034 67.0556L152.014 67.0806C151.965 67.1448 151.925 67.2332 151.693 67.3061C151.628 67.2908 151.563 67.2745 151.497 67.2572C150.659 67.0376 149.996 66.735 149.354 66.4211L148.658 66.0781C147.851 65.6822 147.036 65.3006 146.173 65.019C144.33 64.418 142.435 63.9946 140.51 63.7686C140.093 63.7196 139.691 63.5788 139.375 63.3375C139.074 63.1085 138.844 62.7914 138.739 62.37C138.603 61.8245 138.642 61.4115 138.935 60.9195C139.155 60.5499 139.47 60.2938 139.832 60.1467C140.2 59.9968 140.62 59.9614 141.037 60.045Z" fill="black"/>
</svg>
