<svg width="254" height="452" viewBox="0 0 254 452" fill="none" xmlns="http://www.w3.org/2000/svg">
<path fill-rule="evenodd" clip-rule="evenodd" d="M175.233 225.136C179.276 225.218 177.543 191.408 174.843 185.178C174.465 183.916 174.152 182.19 174.215 180.641C177.555 180.94 177.195 178.892 177.023 176.422C177.079 174.461 177.231 170.414 173.882 171.99C163.841 153.973 174.698 107.401 148.26 103.014C145.074 102.321 141.782 101.603 139.099 99.6237C136.261 94.9219 134.816 94.3214 130.113 94.0172C129.242 89.782 127.614 85.2575 122.763 83.6094C118.322 82.0497 113.153 81.9253 108.523 82.7576C104.69 83.8781 104.339 90.2633 103.487 93.4114C98.3251 92.1846 91.9629 89.6042 89.1837 95.4537C87.8375 95.0931 86.5902 95.3272 85.2223 95.7285C73.7576 97.3841 62.6343 102.032 58.382 111.731C55.7554 117.551 57.6195 123.887 58.6045 129.914C59.5233 136.478 57.1007 142.559 55.9777 148.872C54.3056 157.566 54.0032 164.539 55.0944 171C52.2102 171.588 51.9976 173.94 53.1644 176.4C53.5071 177.232 53.8522 178.11 54.6099 178.581C56.1512 179.45 58.1433 178.448 59.8183 178.295C60.1667 181.766 60.8414 185.173 61.9577 189.044C61.6344 190.203 61.2637 191.497 60.9307 192.661L60.8183 192.551C56.9941 206.907 45.6205 220.852 49.1554 236.11C49.3633 236.618 49.7577 236.512 50.0606 236.503C51.8153 237.101 53.4272 236.722 55.1967 236.783C59.3941 236.785 63.4492 237.267 67.2111 237.687C67.8987 241.713 70.1344 248.304 74.1214 249.839C74.1885 249.859 75.3703 249.638 75.469 249.632C64.8553 288.202 45.7582 323.867 38.1725 363.215C38.1275 363.695 38.9993 363.441 39.2853 363.499C39.2461 364.591 40.0333 364.854 41.1356 365.242C39.7152 367.903 38.4357 370.561 37.0217 373.229C36.3661 374.55 35.2975 375.854 35.1028 377.266C33.5375 378.162 32.4832 379.915 32.5111 381.551C28.2899 383.15 29.4372 391.048 28.4742 394.959C27.5004 400.787 22.8685 404.857 19.6926 409.634C19.0453 410.594 18.3561 411.85 18.3255 413.055C16.3567 413.882 15.6226 415.689 15.7529 418.731C15.7458 422.289 16.8658 423.644 19.8859 423.73C28.0889 424.465 37.6612 424.166 45.9118 423.33C52.0839 422.627 57.5532 423.211 56.1732 416.564C55.8892 414.955 56.4347 412.788 55.3721 411.486C54.7169 407.61 55.0981 403.702 56.5109 399.873C57.3697 396.648 58.8207 389.987 58.2195 385.66C57.9414 383.658 53.3825 382.557 52.58 382.459C52.8352 380.953 52.7229 378.32 51.8183 377.273C53.4793 377.065 53.8968 376.672 54.2428 375.018C55.0694 372.341 55.1794 369.434 57.2266 367.178C60.9085 367.22 64.5781 366.383 68.2581 366.281L68.4412 365.902C70.6178 365.877 72.7821 365.532 74.848 364.857C75.3061 365.051 75.8922 365.218 76.1496 364.596L77.3786 361.152C91.6843 320.351 107.541 279.452 123.003 238.95C123.905 236.981 124.991 234.888 126.402 233.133C126.88 257.915 132.673 282.67 133.17 307.439C133.842 324.479 133.669 341.34 135.458 358.44C135.918 362.059 136.407 361.939 137.01 361.717C137.252 361.751 137.82 361.859 138.067 361.906C137.664 365.502 137.2 371.34 135.479 375.018C131.675 375.544 132.356 378.16 133.2 380.328C132.292 381.023 132.422 382.642 132.691 383.539C129.112 383.542 128.332 386.151 128.578 387.797C128.918 390.551 128.728 394.835 130.778 397.187C131.985 400.185 133.95 403.015 134.718 406.246C135.2 408.623 135.014 412.085 135.479 414.443C134.308 414.927 134.804 415.687 134.607 417.157C133.594 423.885 137.16 422.741 143.466 423.204C147.245 423.952 176.018 425.441 174.775 420.964C174.987 419.142 174.041 418.341 173.636 416.547C173.454 416.07 169.869 410.558 167.731 408.471C160.56 402.432 160.873 394.325 161.1 384.987C160.679 382.456 158.506 380.032 155.734 380.305C156.53 377.601 155.055 375.251 151.972 374.469C152.28 371.409 152.604 367.25 153.731 364.603L152.67 363.634L154.091 363.786L154.563 362.721L155.077 363.888C157.517 363.888 160.271 363.403 162.608 363.175C162.981 363.194 162.815 362.739 162.876 362.564C165.083 362.154 165.325 361.103 164.935 358.599C165.449 317.932 165.226 277.647 164.523 236.905C167.973 237.043 171.336 235.915 174.726 235.164C175.931 235.841 176.272 233.429 176.131 232.908C175.94 230.213 175.568 227.583 175.233 225.136Z" fill="#D08B5B"/>
<path fill-rule="evenodd" clip-rule="evenodd" d="M61.424 188.366C62.1329 190.608 62.926 193.929 63.757 196.142C65.2507 202.273 66.3712 208.499 67.1047 214.74C67.3502 216.827 67.5422 218.914 67.824 220.99C67.5375 222.341 68.1262 226.179 67.7815 227.521C61.8088 228.514 53.4643 232.749 48.6767 236.128C47.1366 224.787 54.2037 212.086 57.2275 201.374C57.4281 200.686 57.6281 199.99 57.8198 199.29C58.684 197.112 60.377 191.635 60.9766 189.445L61.0573 189.146L61.1696 189.255L61.424 188.366ZM138.67 99.2714C139.342 99.6493 140.041 99.9684 140.758 100.245C146.34 103.121 156.14 103.209 159.513 108.84C168.229 125.082 168.5 152.566 173.403 171.911C173.674 172.978 176.199 171.837 176.474 172.872C177.155 175.442 176.445 177.913 177.241 180.242C174.133 180.96 166.065 181.43 162.964 182.164C163.732 184.544 172.013 203.801 175.3 231.253C174.11 231.014 172.948 230.667 171.812 230.269L171.376 230.1C164.982 227.607 154.933 223.729 147.995 222.73C143.6 198.758 139.585 173.29 139.084 148.809L139.062 147.679C138.914 140.437 137.924 133.26 136.679 126.114L136.611 125.611C135.936 120.635 135.363 115.451 136.67 110.536C137.093 110.652 135.881 108.007 135.33 104.63C134.989 102.538 135.935 100.12 134.563 98.0388C132.657 95.1493 130.065 98.844 130.264 98.0388C130.364 97.6341 127.748 92.7161 128.729 93.233C129.8 93.7971 133.795 93.7822 135.33 95.1553C138.685 98.1557 139.297 100.438 138.723 99.3678L138.67 99.2714ZM81.606 96.964C83.0021 96.7201 87.0525 95.4973 88.5068 95.5672C87.6546 97.1987 89.735 89.9376 96.3363 91.5853C96.6252 91.6574 103.426 92.5863 103.398 93.7822C103.38 94.5842 95.8981 95.5318 95.2617 96.5284C94.5142 97.699 95.7869 101.221 95.2617 102.433C93.6841 106.073 94.4297 107.08 94.905 106.691C95.2818 107.213 95.3341 107.954 95.4102 108.646L95.4962 109.396C96.8828 121.231 99.7593 132.887 100.807 144.758C102.323 158.04 99.0462 171.153 97.9911 184.346C97.1299 196.232 98.2951 208.967 97.8246 220.852C97.7606 221.511 97.5316 222.405 97.0674 222.986L97.0218 223.041L97.017 223.043L96.8334 223.075C93.4673 223.684 88.4445 225.581 84.981 225.564C81.7494 219.938 78.2465 205.549 79.2956 195.803C80.0756 188.557 81.1379 179.188 81.1379 177.403C81.1379 174.175 60.2592 179.188 54.1184 178.502C52.0979 178.276 52.0021 176.213 51.779 172.854C51.7154 171.896 54.0885 171.464 54.1184 170.401C54.3345 162.701 54.3127 152.409 54.4156 151.804C55.2866 145.777 57.5221 139.925 57.8235 133.836C57.924 127.69 55.0672 121.685 56.2209 115.523C57.8994 106.547 66.8382 100.318 76.1034 98.0367C77.9134 97.5416 79.755 97.2863 81.606 96.964Z" fill="#9FD8E5"/>
<path fill-rule="evenodd" clip-rule="evenodd" d="M94.2878 105.355L94.3148 105.541L94.3407 105.728C95.0804 111.083 99.7346 142.499 100.278 147.872C101.362 158.584 98.5778 170.626 98.4857 181.385C98.4618 184.168 99.2153 204.228 98.5601 205.466C98.3642 205.837 95.6748 210.033 100.789 208.847C112.34 206.169 138.524 196.211 144.247 196.085C143.389 195.963 142.903 195.345 142.789 194.559C142.681 193.807 140.641 176.695 139.796 158.878C138.866 139.262 135.44 105.061 135.331 104.63C133.188 105.642 130.264 118.773 121.821 118.773C113.377 118.773 102.324 109.71 96.0294 100.648C94.7341 98.7828 94.7667 105.556 94.2878 105.355Z" fill="#8FA7DF"/>
<path fill-rule="evenodd" clip-rule="evenodd" d="M153.439 375.811L153.571 375.875L153.603 375.893C154.282 376.277 154.741 376.947 155.383 378.207L155.742 378.929L156.357 379.078C158.724 379.652 160.488 381.038 162.083 384.272L162.131 384.371L162.18 384.472C162.716 385.589 162.919 386.825 162.87 388.282L162.866 388.391L162.859 388.547C162.816 389.417 162.72 390.134 162.458 391.654L162.267 392.746L162.213 393.065C161.884 394.999 161.769 396.083 161.801 397.304C161.826 398.263 161.963 399.143 162.229 399.973C163.31 403.349 165.428 406.869 168.158 410.251C169.102 411.42 173.394 417.939 173.431 418.076L173.506 418.351L173.577 418.617C173.589 418.66 173.6 418.704 173.612 418.747L173.7 419.088L173.755 419.304C173.941 420.05 174.078 420.686 174.163 421.219L174.174 421.292C174.327 422.294 174.321 422.888 173.944 423.367L173.918 423.398L173.856 423.473L173.78 423.537L173.734 423.575L173.686 423.611L173.543 423.717L173.371 423.777C172.765 423.989 170.657 424.523 168.444 424.943C164.853 425.623 161.12 426.022 157.43 426.002C156.349 425.996 155.224 425.959 154.058 425.895C150.909 425.72 147.579 425.35 144.055 424.825L143.442 424.732L142.795 424.63C140.504 424.264 137.211 423.687 136.618 423.59L136.562 423.581L136.539 423.581C135.18 423.543 134.308 422.726 133.978 421.491L133.964 421.436L133.951 421.382C133.732 420.454 133.786 419.272 134.05 417.947C134.272 416.84 134.799 410.592 134.799 410.592L132.822 404.694C132.822 404.694 128.644 387.719 129.303 385.443L129.318 385.394C129.407 385.112 133.137 383.102 133.335 382.681C133.536 382.253 133.055 377.328 133.257 376.824L133.276 376.777L133.295 376.736L133.303 376.719C133.511 376.302 135.48 374.541 140.857 374.305C142.896 374.215 146.876 373.954 149.454 374.305C151.856 374.632 152.912 375.561 153.439 375.811ZM49.2458 378.964L49.5104 379.019L49.5658 378.991C50.0328 378.76 50.4355 378.637 50.9445 378.66C51.624 378.689 52.2284 379.008 52.7235 379.576C53.0154 379.91 52.8838 382.654 52.8807 382.785L52.8801 382.819L52.8799 382.881L52.8801 382.899L52.8933 382.908C53.0936 383.028 53.5235 383.104 54.374 383.147L54.5675 383.156L54.9718 383.173C55.6706 383.203 56.0297 383.233 56.4438 383.312L56.4868 383.32C57.2465 383.469 57.8504 383.757 58.2701 384.268C58.9412 385.084 59.0695 386.228 58.8757 387.69C58.8082 388.199 54.321 403.245 54.0041 404.536C53.5245 406.489 54.4431 416.839 54.5432 417.801C54.6636 418.957 54.685 419.999 54.5827 420.836C54.436 422.036 54.0564 422.875 53.169 423.251L53.121 423.271L53.0177 423.312L52.7384 423.368L52.5623 423.402C50.7459 423.75 49.008 423.929 46.1098 424.12L43.8977 424.261L43.4131 424.294C42.7418 424.34 42.2317 424.379 41.718 424.426L41.2638 424.468L41.2464 424.469C33.606 424.999 24.3026 425.051 17.5917 424.531L17.1978 424.499L16.9039 424.491C15.833 424.453 15.1666 423.807 14.8162 422.839L14.7984 422.789L14.7811 422.738C14.585 422.147 14.4892 421.449 14.4408 420.507L14.424 420.123C14.4211 420.046 14.4185 419.967 14.4157 419.875L14.3889 418.896L14.3812 418.682C14.376 418.551 14.3703 418.443 14.3636 418.342L14.3551 418.227L14.3243 418.052C14.1177 416.846 26.4933 402.22 27.1694 400.592C27.9933 398.608 29.328 383.29 29.9037 382.679L29.9226 382.659L31.6737 380.889L31.9288 383.223L31.9306 383.22C31.9723 383.14 32.0035 383.062 32.022 382.991L32.0302 382.956L32.0362 382.922L32.0386 382.906L32.0416 382.89C32.351 381.226 33.3317 379.967 34.866 379.144C36.1548 378.453 37.7908 378.087 39.7265 377.986C42.5426 377.838 45.6687 378.225 49.2458 378.964Z" fill="white"/>
<path fill-rule="evenodd" clip-rule="evenodd" d="M104.391 87.7407C104.904 88.1035 104.85 89.1091 104.901 89.6721L104.904 89.709C105.065 91.4095 104.847 93.1178 104.384 94.7688L104.313 95.0206C104.092 95.8096 103.872 96.7555 103.181 97.2967C102.395 97.9114 101.147 97.5135 101.119 96.5222C101.104 96.0616 101.276 95.618 101.493 95.1858C99.9711 95.7121 98.449 96.2327 96.9207 96.7405C95.9444 103.976 107.223 112.834 113.753 115.935C123.262 120.652 131.263 113.427 132.48 104.933C132.685 103.805 132.822 102.645 132.848 101.501L132.85 101.392C132.855 100.446 132.68 99.1813 133.368 98.3949C132.862 98.3842 132.412 98.448 131.917 98.5176L131.94 98.5545C132.221 99.0043 132.618 100.124 131.729 100.209C129.81 100.028 128.917 97.0127 128.449 95.5665L128.431 95.5038C128.128 94.4199 127.744 90.4859 128.654 90.0142C128.934 90.9848 128.823 92.0388 129.164 93.0122C129.938 93.2918 131.413 93.3673 131.754 93.4188C135.743 93.4602 138.004 96.026 139.621 99.0296C144.36 102.515 151.173 101.916 156.29 104.787C171.95 114.96 166.836 154.562 174.636 171.41C176.197 170.831 177.789 171.99 177.998 173.405C178.213 174.493 178.149 175.659 178.166 176.761L178.173 176.899C178.301 179.154 178.736 181.688 175.338 181.737C175.343 182.996 175.607 184.215 175.947 185.43C177.829 192.786 178.65 200.362 178.835 207.902L178.845 208.456C178.906 212.42 178.96 224.681 176.417 226.131L176.536 226.995C176.83 229.155 177.107 231.32 177.262 233.491C177.506 234.618 176.676 237.318 174.982 236.603C171.875 237.292 168.811 238.308 165.582 238.313C166.364 261.635 165.975 284.98 166.091 308.311C165.842 325.51 166.879 342.85 165.972 359.982L166.005 360.224C166.262 362.148 166.338 363.821 163.857 364.479C163.822 364.95 163.417 365.201 162.938 365.257C161.578 365.421 160.218 365.576 158.857 365.726C157.588 365.81 156.231 366.093 154.967 365.958C155.089 366.069 154.758 366.086 154.722 366.005C153.569 368.597 153.235 371.422 152.949 374.186C155.747 375.142 157.273 377.291 156.817 379.986C159.639 380.088 161.7 382.898 162.096 385.267C162.349 386.902 162.146 388.525 162.064 390.162C161.674 395.758 162.592 401.786 166.623 406.249C169.239 409.051 172.646 411.585 173.787 415.233C174.097 415.363 174.352 415.614 174.464 416.006L175.188 418.553V418.553L175.549 419.827C175.812 420.756 176.047 421.705 175.905 422.667L175.89 422.76C175.185 428.849 147.33 425.914 141.894 425.476C139.709 425.169 137.311 425.337 135.343 424.3C132.929 422.872 132.628 419.977 133.042 417.605L133.076 417.383C133.244 416.322 133.49 415.21 134.613 414.617C134.235 412.419 134.381 410.171 133.931 407.982C133.252 404.884 131.198 402.197 130.149 399.223C128.619 397.699 128.567 395.322 128.248 393.373C128.005 391.481 127.807 389.577 127.725 387.675C127.503 385.16 128.721 383.086 131.672 382.757C131.536 382.28 131.91 381.868 132.283 381.563C131.403 378.763 131.16 374.918 134.978 373.963C136.424 370.75 136.844 367.268 137.229 363.842C137.183 363.833 137.137 363.826 137.092 363.819C135.343 364.471 134.868 361.678 134.704 360.203L134.668 359.851C132.868 342.798 133.033 325.645 132.357 308.54L132.291 307.303C131.699 296.033 131.346 284.663 129.171 273.543C126.982 261.15 126.41 248.554 125.662 236.03C124.78 237.257 124.306 238.666 123.593 239.973C114.339 264.338 104.844 288.63 95.6946 313.028C89.0634 330.692 82.7282 348.451 76.3741 366.198C76.0498 367.106 75.0283 367.295 74.2807 367.004C72.3776 367.595 70.3804 367.931 68.3704 367.989C68.2494 368.239 68.0007 368.421 67.6369 368.386C66.5619 368.28 65.3249 368.581 64.2499 368.694C61.7901 368.912 59.4021 369.25 56.9197 369.282C55.382 371.024 55.2853 373.386 54.5763 375.46C54.1681 376.517 54.2322 378.888 52.8227 379.186C53.3279 379.883 53.3941 380.72 53.3122 381.583C53.7506 381.672 54.1952 381.841 54.6076 382.014C55.0093 382.196 55.5399 382.18 55.8166 382.547C63.6891 383.826 57.9359 397.223 56.5675 401.654C55.2244 405.276 54.8039 409.059 55.4168 412.841C56.3536 414.001 56.0399 415.725 56.1833 417.1C56.2587 418.327 56.3972 419.572 56.3848 420.8C56.2318 425.901 49.2041 425.071 45.2393 425.733C42.7636 425.991 40.2766 426.171 37.7897 426.311C31.4825 426.662 25.1398 426.689 18.8455 426.142C14.7815 426.027 13.9076 423.651 13.9141 420.402L13.9079 420.267C13.8163 418.062 14.2131 415.399 16.5505 414.252C16.667 413.086 17.3266 411.91 18.0001 410.891C21.132 406.173 25.8343 402.037 26.7591 396.375C27.6664 392.668 26.6386 384.507 30.8437 382.574C30.9413 380.905 32.0854 379.203 33.5022 378.301C33.7756 376.911 34.8056 375.633 35.4429 374.355C36.7427 371.915 37.945 369.437 39.2379 366.995C38.5609 366.738 37.8416 366.266 37.7472 365.596C37.0973 365.603 36.4551 365.227 36.5338 364.518C36.7633 362.46 37.2657 360.436 37.7401 358.414L37.7993 358.161C46.2411 321.591 63.6738 287.395 73.873 251.294C72.5007 251.516 71.2177 250.11 70.4591 249.194C68.0084 246.237 66.561 242.659 65.9245 239.029L64.7726 238.901C60.931 238.478 57.0704 238.108 53.1967 238.208L52.2631 238.236C51.2259 238.264 50.1869 238.257 49.201 237.922C48.5132 237.979 47.797 237.649 47.627 236.957C44.758 224.143 51.8102 211.982 56.8615 200.403C58.0514 197.556 58.8984 194.668 59.7058 191.72C59.7324 191.624 59.8993 191.644 59.8947 191.743C59.7373 195.02 58.8306 198.325 57.9096 201.484C54.8859 212.196 48.5864 222.701 50.1265 234.041C54.914 230.662 60.6002 228.315 66.5729 227.322C66.9176 225.98 67.2985 224.648 67.585 223.297C67.3033 221.221 67.1112 219.134 66.8657 217.048C66.1322 210.806 65.0117 204.581 63.518 198.449C61.2008 192.279 59.1778 186.026 58.4544 179.521L58.3227 179.544C56.7162 179.836 54.9461 180.471 53.4556 179.554C52.5096 178.966 52.1002 177.992 51.7181 177.056C50.6262 174.788 50.4243 171.806 53.5137 170.858C52.362 163.646 53.1103 156.117 54.5023 148.972C55.6168 142.709 58.062 136.539 57.1467 130.128C56.1306 123.967 54.2358 117.515 56.9748 111.484C61.4764 101.419 72.8757 96.6442 84.0865 95.1074L84.2682 95.0596C85.6551 94.6916 86.918 94.3037 88.363 94.5825C91.7715 88.9144 97.2993 91.2198 102.697 92.4831C103.062 91.5219 103.365 90.5386 103.651 89.5562C103.829 89.0557 103.77 87.901 104.391 87.7407ZM135.634 417.367L135.62 417.614C135.477 420.268 135.638 422.541 139.31 422.524C141.836 422.766 144.363 423.001 146.893 423.206L147.842 423.281C155.352 423.882 162.953 424.175 170.448 423.274L170.761 423.236C171.387 423.156 172.547 423.172 173.043 422.757C173.641 422.036 172.949 420.661 172.804 419.824C161.108 419.702 149.397 419.315 137.693 419.449C136.462 419.455 135.907 418.512 136.02 417.653C135.881 417.569 135.751 417.472 135.634 417.367ZM16.8859 416.036C16.3107 417.848 16.4524 419.561 16.7773 421.376C16.9397 423.276 17.9484 423.398 19.7739 423.443C26.9004 424.032 34.0784 423.908 41.2067 423.414C45.0274 423.045 48.9535 423.059 52.703 422.302C54.4919 421.591 53.4592 419.357 53.5201 417.987C45.0993 422.85 32.3642 422.233 23.1816 419.419L23.0345 419.363C20.8623 418.545 18.0857 418.03 16.8859 416.036ZM30.8343 383.313C29.8662 384.292 29.8461 387.079 29.8055 388.028L29.8004 388.134C29.6916 390.126 29.7089 392.123 29.6126 394.115C29.6836 402.506 24.2771 406.691 20.2621 413.437C19.1639 415.074 20.7615 415.307 22.061 415.838C30.4756 419.347 40.4289 419.884 49.2197 417.197C53.6385 416.046 52.6738 413.381 52.2986 410.121C51.9292 403.46 55.8402 397.459 56.997 391.015L57.0282 390.848C57.3731 388.956 57.9692 384.108 54.606 385.144C53.8743 385.548 53.1863 385.042 53.0999 384.423C53.0127 384.436 52.9233 384.443 52.837 384.444C52.4481 386.598 52.0452 388.749 51.6581 390.902C51.9838 391.088 52.2891 391.297 52.5599 391.537C52.8888 391.829 52.659 392.443 52.1632 392.406C51.9084 392.386 51.6565 392.351 51.4061 392.309C51.2076 394.181 47.89 393.13 48.8484 391.63C44.0783 390.152 38.8232 390.27 33.9791 391.403L33.9591 391.411C33.5841 391.544 30.8876 392.029 31.7551 392.406C32.1166 392.445 31.2934 392.868 31.1491 392.213C31.1025 391.39 33.1984 390.986 33.8406 390.644C32.221 388.567 31.1143 385.874 30.8343 383.313ZM153.038 376.735C148.544 374.554 143.022 375.364 138.148 375.75L137.943 375.77C136.703 375.89 134.974 375.964 134.405 377.109C133.58 378.943 134.947 383.047 135.376 385.087L135.522 385.622C135.878 386.929 136.216 388.224 136.338 389.574C136.341 389.617 136.295 389.647 136.253 389.647C134.545 388.012 133.778 385.814 132.981 383.717C132.641 383.891 132.308 384.079 131.995 384.286C130.772 388.054 130.362 392.067 131.331 395.911L131.366 396.047C132.562 400.798 136.289 404.683 136.643 409.648C136.88 411.655 136.827 413.712 137.471 415.661C137.837 415.733 138.157 415.975 138.301 416.28L140.401 416.282C150.555 416.298 160.711 416.38 170.858 416.755C170.531 414.197 168.013 411.928 166.239 410.175C160.796 405.179 158.442 398.003 159.338 391.086C159.81 387.626 161.964 382.189 156.694 380.911C156.309 383.731 155.789 386.542 155.501 389.373C156.496 389.803 156.434 390.937 155.219 390.915C154.674 392.56 152.845 391.895 153.043 390.343C146.353 388.129 142.516 387.387 135.999 390.722C135.817 390.699 136.5 390.043 136.586 389.926C138.646 387.936 141.809 387.001 144.776 386.967C147.717 386.967 150.484 387.96 153.258 388.729C153.675 386.057 153.956 383.369 154.287 380.688L154.358 380.114C154.531 378.706 154.468 377.544 153.038 376.735ZM45.5415 411.235C46.5205 411.04 47.421 410.743 48.4156 410.944C51.9161 413.301 37.6129 413.965 36.3952 413.798C33.2949 413.716 30.1933 413.364 27.2097 412.579L27.0017 412.523C26.7078 412.45 23.7338 411.707 24.2978 411.376C28.3333 411.697 32.2841 412.361 36.3952 412.188C38.446 412.149 40.5048 412.02 42.5337 411.743C43.5426 411.605 44.5468 411.436 45.5415 411.235ZM140.106 408.316C139.465 407.455 142.589 408.598 142.996 408.608C145.583 409.18 148.216 409.613 150.874 409.793C152.655 409.914 154.456 409.94 156.241 409.862C157.563 409.821 158.87 409.646 160.183 409.525L160.231 409.523C161.011 409.499 162.575 409.932 161.611 410.765C160.112 411.806 157.895 411.489 156.099 411.642C150.645 411.626 144.869 410.839 140.106 408.316ZM37.5603 402.059C39.1327 401.803 47.7881 401.72 46.9253 404.101C46.7159 404.553 46.2374 404.703 45.7338 404.632C40.3771 403.464 34.5987 402.853 29.259 404.463C29.1724 404.49 29.1126 404.363 29.1976 404.329C31.823 403.15 34.6322 402.326 37.5603 402.059ZM149.907 399.731C151.32 399.635 152.742 399.668 154.155 399.764L154.734 399.804C155.331 399.847 155.94 399.903 156.51 400.058L156.623 400.09C157.4 400.315 159.149 401.51 157.821 402.086C156.395 402.499 155.189 402.007 153.814 401.69C149.979 400.876 145.948 401.152 142.149 401.984L142.684 402.138V402.138C142.717 402.117 142.76 402.167 142.728 402.191C142.344 402.492 141.817 402.385 141.545 402.011C141.497 401.947 141.527 401.845 141.603 401.809C144.178 400.598 147.017 399.928 149.907 399.731ZM30.4755 399.427C34.8062 397.709 39.8236 397.519 44.468 398.017L44.7989 398.053C46.2478 398.206 48.1376 398.276 48.9666 399.485C49.253 399.905 48.9571 400.385 48.4944 400.537C47.1315 400.983 45.529 400.089 44.2196 399.756C40.3473 398.806 36.212 398.706 32.2746 399.363C32.3021 399.493 31.65 399.436 31.508 399.483C31.33 399.474 30.1489 399.824 30.4755 399.427ZM139.684 396.744C143.462 395.097 147.83 394.705 151.909 395.555L152.079 395.598C153.886 396.053 156.796 396.59 157.443 398.305C157.583 398.691 157.28 399.213 156.825 399.292C155.284 399.555 153.884 398.547 152.49 398.062C148.387 396.68 143.743 396.349 139.5 397.366C139.472 397.516 139.443 397.664 139.413 397.814C139.486 397.771 139.561 397.867 139.503 397.92C138.826 398.345 138.122 397.272 139.684 396.744ZM40.2105 393.849C43.2674 393.667 46.35 394.015 49.3011 394.738L49.8561 394.875C50.6626 395.078 51.7074 395.397 51.8248 396.178C51.8704 396.489 51.7839 396.703 51.5021 396.896C50.4748 397.584 48.2404 396.141 46.963 395.971C42.3255 394.722 37.3477 394.74 32.6502 395.696L32.4901 395.729L32.6034 396.452C32.7147 396.797 31.6824 395.982 32.0746 395.612C34.5544 394.48 37.448 394.053 40.2105 393.849ZM142.566 392.557C145.019 392.16 147.55 392.084 150.031 392.284L150.324 392.309C151.805 392.426 156.605 392.597 155.47 394.842C155.279 395.217 154.727 395.265 154.369 395.103C153.17 394.558 151.859 394.361 150.535 394.181C145.861 393.598 141.086 393.837 136.523 394.966C136.623 395.105 136.418 395.271 136.224 395.304C135.743 395.384 135.743 394.869 135.949 394.595C136.195 394.271 136.684 394.153 137.062 394.01C138.819 393.324 140.682 392.86 142.566 392.557ZM49.6433 380.067L49.3639 380.007C44.682 379.02 34.3018 377.249 33.2268 383.031C32.8453 385.577 34.1038 388.061 34.0108 390.583C38.8657 388.813 44.2344 388.831 49.2783 390.001C49.7252 387.384 50.1517 384.764 50.6082 382.148L50.682 381.835C50.8852 380.953 50.9542 380.263 49.6433 380.067ZM39.2158 381.12C40.2361 380.335 41.9375 380.346 42.9383 381.202C43.8535 381.375 44.499 382.245 44.5138 382.992C45.9054 385.185 44.2274 388.214 41.5707 388.761C35.5716 389.895 32.8899 382.508 39.2158 381.12ZM143.151 377.621C148.171 376.817 149.994 382.526 145.875 384.841C140.055 387.458 136.177 379.23 143.151 377.621ZM41.6994 364.941C41.7734 365.378 41.5338 365.688 41.2477 365.982C40.2186 369.764 38.6698 373.284 37.1427 376.909C42.1107 376.171 46.8044 376.815 51.2001 378.024C51.2526 376.918 51.815 375.771 52.2057 374.728C52.9663 372.748 53.8859 370.818 54.9466 368.955L55.0799 368.722C55.4608 368.059 55.8275 367.366 56.2775 366.731C51.4154 366.136 46.5532 365.6 41.6994 364.941ZM139.623 364.135L139.493 364.662C138.935 366.945 138.405 369.249 137.575 371.466L137.564 371.512C137.436 372.072 137.15 374.663 136.97 372.834C136.832 373.11 136.684 373.382 136.527 373.65L137.731 373.522C142.221 373.049 146.906 372.672 151.309 373.683C150.852 370.509 151.525 367.476 152.507 364.475C148.203 364.386 143.936 364.415 139.623 364.135ZM58.1083 368.081C57.9509 368.213 57.7968 368.349 57.6503 368.49C57.8487 368.444 58.0471 368.4 58.2311 368.361C58.2235 368.257 58.1413 368.179 58.1083 368.081ZM155.109 365.17L154.969 365.465V365.465C155.042 365.426 155.122 365.389 155.208 365.356C155.169 365.299 155.136 365.238 155.109 365.17ZM39.0398 364.522C38.9889 364.691 38.9501 364.877 38.8586 365.031C38.931 365.043 39.005 365.055 39.0791 365.07C39.1687 364.907 39.2633 364.749 39.3654 364.593C39.2568 364.571 39.1482 364.548 39.0398 364.522ZM76.4796 177.343C76.0389 177.534 75.5793 177.583 74.9719 177.605C70.0354 177.789 65.1149 178.302 60.2677 179.176C60.5352 182.692 61.7283 186.097 62.8636 189.449L63.0991 190.184C66.9352 202.193 70.2836 214.743 69.6092 227.304C69.647 227.317 69.6832 227.334 69.7179 227.349C69.6566 227.503 69.6127 227.661 69.551 227.813L69.5116 227.904L69.2813 228.417C69.154 228.702 69.0304 228.988 68.9229 229.281C68.7345 229.341 68.503 229.386 68.2823 229.415C67.1624 236.065 68.2272 243.521 73.2736 248.722C71.4746 245.475 70.8471 241.787 70.9263 238.18L70.9405 237.629C70.9611 236.947 71.0066 236.269 71.2382 235.622C71.2477 235.588 71.2981 235.593 71.3108 235.622C72.3792 238.58 72.4488 241.794 73.4985 244.774L73.5788 245.003C74.409 247.338 75.7953 250.345 78.2031 251.552C78.6464 251.67 79.3283 251.53 79.5587 251.988L79.574 252.021L79.5882 252.017C78.5133 248.86 77.8213 245.596 77.5842 242.3L77.5688 242.076C77.4932 240.926 77.3265 239.694 77.6461 238.571C78.2552 239.598 78.1038 241.274 78.3872 242.516L78.3985 242.587C78.6224 243.929 80.7777 254.189 82.1933 252.818C82.4857 252.44 82.4097 251.709 82.4186 251.259L82.4198 251.215C82.4419 250.565 82.4339 249.914 82.4089 249.264C82.2561 245.433 81.5918 241.501 82.8935 237.768C83.1109 237.139 84.2914 237.021 84.4346 237.768C85.0075 240.758 85.5551 243.75 86.1029 246.742C86.5022 248.57 86.4855 250.631 87.6989 252.208C87.713 248.766 87.5002 245.335 87.3162 241.897L87.267 241.754C87.1216 241.32 86.9782 240.757 87.3117 240.388C87.4455 239.604 88.7237 239.694 88.8321 240.515C88.8559 240.686 88.873 240.86 88.8919 241.033C89.3155 241.509 89.709 241.996 90.2093 242.405C93.5514 236.286 82.6168 225.719 81.1072 218.809C76.6612 205.353 79.2173 191.244 80.5105 177.541C79.1733 177.399 77.825 177.361 76.4796 177.343ZM140.109 99.8982C142.446 104.106 144.162 108.558 145.35 113.141C145.717 114.556 143.601 115.424 142.746 114.185L142.72 114.146C141.669 112.574 140.103 111.188 138.12 110.647C136.769 115.726 137.427 121.095 138.129 126.224C139.374 133.371 140.364 140.547 140.512 147.789L140.519 148.177C140.953 172.908 145.006 197.528 149.444 221.741C156.54 222.764 163.036 225.647 169.577 228.182C170.713 228.58 171.875 228.927 173.065 229.166C169.779 201.715 157.281 175.97 153.419 148.618C152.398 141.504 152.35 134.281 153.76 127.208C153.784 127.073 153.998 127.118 154.007 127.238C154.162 130.143 154.716 133.011 155.045 135.9C155.268 134.25 155.784 132.578 156.201 130.997C156.711 129.449 156.9 126.965 158.394 125.956L158.488 125.664V125.664C158.528 125.538 158.736 125.591 158.703 125.716C158.687 125.776 158.671 125.835 158.657 125.895C159.617 126.124 158.72 127.145 158.482 127.633C156.942 131.341 156.483 135.354 155.432 139.175C156.953 151.103 159.694 162.881 163.069 174.475C166.17 173.741 169.281 173.034 172.39 172.317C165.455 152.04 169.51 129.411 159.121 110.049C155.229 103.551 145.643 104.434 140.109 99.8982ZM87.4252 96.1912C85.9708 96.1213 84.4518 96.8302 83.0557 97.0741C81.2047 97.3964 79.3631 97.6517 77.553 98.1468C68.2879 100.428 59.3491 106.657 57.6706 115.633C56.5169 121.796 59.3737 127.8 59.2732 133.946C58.9718 140.035 56.7363 145.887 55.8653 151.914C54.8175 158.078 54.4567 164.529 55.3555 170.722C63.6668 168.605 72.3468 168.472 80.8696 169.566C80.1588 160.178 81.0915 150.745 81.6076 141.364C81.9791 135.339 82.6149 129.288 82.39 123.252C82.3851 123.118 82.6275 123.085 82.6508 123.219C85.2068 135.547 83.7078 148.062 83.4493 160.494C83.2855 163.636 83.7185 166.807 83.5437 169.931C87.4184 170.68 87.2783 174.738 86.0934 177.413C85.8835 178.056 85.1706 177.945 84.5936 177.866C83.9682 178.457 82.4766 177.687 81.6265 177.687C80.961 193.119 76.9183 209.603 85.2026 224.026C88.6661 224.044 92.0001 222.97 95.3662 222.362L95.5499 222.329L95.5546 222.327C96.0494 221.749 96.2914 220.819 96.3575 220.138C96.8279 208.253 95.3556 196.342 96.2169 184.456C97.2719 171.263 100.549 158.151 99.0332 144.868C97.9851 132.997 95.1086 121.341 93.722 109.506L93.6516 108.894C93.5654 108.164 93.5327 107.358 93.1308 106.801C90.7916 108.716 88.8288 110.992 87.4234 113.553C86.6454 114.79 84.5612 114.24 84.5291 112.843C84.2294 110.349 84.185 107.846 84.4886 105.351L84.5163 105.131C84.8926 102.009 85.9431 99.0282 87.4252 96.1912ZM174.386 181.84C171.373 181.983 168.356 182.283 165.338 182.248L165.642 183.272C169.296 195.559 173.186 207.823 175.479 220.395L175.563 219.216C175.646 218.037 175.725 216.857 175.777 215.675C176.428 204.377 175.434 193.094 174.386 181.84ZM95.9592 103.425C95.9718 103.936 96.0001 104.445 96.0444 104.953C97.4367 106.829 97.313 109.323 97.6246 111.481C99.3721 123.136 101.945 134.744 102.812 146.52C103.619 155.941 102.302 165.328 100.955 174.655C99.2949 185.335 99.469 196.127 99.8548 206.88C106.235 201.692 115.303 200.782 123.353 199.171L123.736 199.101C129.925 197.962 136.102 196.312 141.361 193.069C137.579 168.769 138.469 144.155 134.602 119.876C134.483 117.964 134.458 116.041 134.635 114.131C134.465 112.063 134.414 109.983 134.41 107.91C132.715 114.036 127.038 119.954 119.599 119.761C111.683 119.343 104.965 113.52 99.8044 108.529C98.4053 107.04 97.0139 105.301 95.9592 103.425ZM165.571 181.851L165.214 181.836L165.236 181.906V181.906C165.309 181.892 165.384 181.88 165.459 181.869L165.571 181.851ZM175.39 173.553C175.333 173.538 175.237 173.538 175.13 173.542C174.976 173.862 174.664 174.125 174.302 174.212L171.282 174.945C168.765 175.556 166.247 176.164 163.725 176.755C164.148 178.222 164.578 179.688 165.012 181.153C168.452 180.155 172.259 180.381 175.766 179.739C175.723 178.047 175.62 176.346 175.588 174.65C175.58 174.374 175.643 173.929 175.486 173.68C175.387 173.522 175.486 173.581 175.39 173.553ZM59.8634 179.25L59.7688 179.268V179.268C59.8003 179.346 59.8287 179.423 59.8555 179.501C59.8571 179.417 59.8585 179.334 59.8634 179.25ZM82.2532 171.106C75.7738 170.257 69.1842 169.755 62.6492 170.333C59.6933 170.693 56.6927 171.078 53.7958 171.57C52.7883 172.963 53.9028 176.353 55.1571 177.426C55.5333 177.554 56.1802 177.305 56.5406 177.232C59.2452 176.682 61.976 176.239 64.7207 175.893C64.8024 175.985 64.922 176.045 65.07 176.032L65.7006 175.98C69.486 175.669 73.3049 175.441 77.0985 175.636L77.1266 175.656V175.656C79.6861 175.824 82.2367 176.187 84.7856 176.45C85.7918 174.08 85.6184 171.36 82.2532 171.106ZM129.398 93.7981C129.649 94.562 129.949 95.3044 130.324 96.0259C130.714 95.9285 131.253 96.0067 131.54 96.2284L131.662 96.2085C131.998 96.151 132.402 96.0631 132.507 96.053C137.136 95.4757 136.784 101.057 136.801 103.862C136.829 105.268 136.86 106.676 136.908 108.082C138.233 107.676 140.004 108.406 141.162 109.053C140.255 106.334 139.19 103.658 138.001 101.029L137.776 100.517C136.84 98.3964 135.804 96.249 133.815 94.7722C132.302 94.4158 130.837 94.351 129.398 93.7981ZM95.8317 92.3977C91.5286 91.0147 89.824 94.1577 88.6306 97.2924C87.2235 100.764 86.8394 104.586 87.0739 108.322L87.2188 108.149C88.8019 106.247 91.0848 103.108 93.9713 103.612C93.9428 102.169 94.0007 100.584 94.3079 99.0852C94.1287 98.1182 94.0829 97.1412 94.2074 96.1642C94.2731 94.9392 95.7539 95.125 96.7287 94.9519C97.5724 94.4455 98.5939 94.2416 99.6201 94.5982C100.394 94.5054 101.169 94.417 101.943 94.3286C102.062 94.0933 102.158 93.8568 102.258 93.6155C100.115 93.2162 97.9723 92.8048 95.8317 92.3977Z" fill="black"/>
<path fill-rule="evenodd" clip-rule="evenodd" d="M125.321 94.6703C121.921 94.6883 119.031 93.8235 116.826 92.3929C114.074 91.5135 110.755 90.157 108.739 88.7329C107.952 88.9128 107.011 88.1641 106.41 87.7689C102.668 85.2645 99.7307 81.5988 98.8604 77.9268C97.5169 79.4469 95.605 79.51 93.7735 78.7546C89.9344 76.8031 90.078 72.6941 91.4601 69.6242C88.5545 63.7807 86.5407 48.3546 90.9762 42.1288C91.8834 41.1973 93.2148 40.6401 94.1734 39.6849C95.0264 38.8506 95.8377 37.9972 96.8301 37.337C99.8582 35.2714 105.074 34.1715 108.339 33.6543C121.971 31.0127 132.445 35.7606 144.792 39.7655C144.082 41.3583 143.099 42.8109 141.972 44.1653C145.038 45.1908 143.629 47.4967 141.251 48.6656L139.835 48.0488C142.043 55.1265 147.122 72.7271 144.93 78.3791C143.183 87.1971 135.513 94.7343 125.321 94.6703" fill="#D08B5B"/>
<path fill-rule="evenodd" clip-rule="evenodd" d="M94.4791 67.2604C92.7332 67.2604 91.4483 68.9933 91.4483 68.9933H91.0879C88.3624 62.7041 86.6559 48.1853 90.9256 42.1922C91.3828 41.7228 91.9477 41.3484 92.5184 40.9703C93.0801 40.598 93.6473 40.2221 94.1228 39.7482C94.2417 39.632 94.3598 39.5153 94.4776 39.3989C95.2055 38.6798 95.9255 37.9686 96.7796 37.4004C99.8076 35.3347 105.023 34.2349 108.289 33.7176C120.009 31.4465 129.395 34.6377 139.644 38.1228C141.316 38.6911 143.01 39.2673 144.742 39.8288C144.031 41.4216 143.048 42.8742 141.922 44.2286C144.987 45.2542 143.579 47.56 141.201 48.7289L140.156 48.2737C139.88 46.9525 139.145 44.3669 137.59 44.2283C136.491 44.1304 134.693 45.0503 132.941 45.9469C131.354 46.7592 129.803 47.5524 128.844 47.5524C128.089 47.5524 126.179 47.0018 123.789 46.313C119.797 45.1623 114.467 43.6257 110.944 43.6257C105.313 43.6257 100.519 47.7946 98.6147 50.8159C96.71 53.8373 101.449 57.5898 101.449 57.5898C101.449 57.5898 98.6147 60.8465 98.6147 62.2708C98.6147 63.695 99.2772 68.1581 99.2772 68.1581C99.2772 68.1581 96.2249 67.2604 94.4791 67.2604Z" fill="#ECDCBF"/>
<path fill-rule="evenodd" clip-rule="evenodd" d="M127.291 95.4297C122.876 95.8359 117.63 94.9004 114.687 91.6858C114.599 91.5896 114.561 91.4806 114.558 91.3754C114.556 91.2585 114.6 91.1454 114.675 91.0575C114.755 90.9651 114.868 90.9007 114.998 90.8798C115.107 90.8622 115.232 90.8735 115.36 90.9381L115.631 91.0731C117.641 92.0682 119.729 92.9169 122.007 93.2801C124.352 93.654 126.741 93.6122 129.065 93.1373C133.3 92.2726 136.727 90.0666 139.249 87.158C142.064 83.9121 143.754 79.7917 144.185 75.6711C144.707 70.6773 143.496 65.714 142.243 60.8788C140.927 55.7982 139.487 50.7435 137.816 45.7475C137.765 45.5971 137.752 45.4564 137.766 45.3267C137.273 45.1536 136.748 45.2017 136.226 45.3597C135.272 45.6485 134.321 46.2998 133.528 46.8374C133.241 47.0321 132.974 47.213 132.734 47.3603C131.75 47.9633 130.676 48.3972 129.474 48.4654C128.224 48.5362 126.998 48.188 125.863 47.7523C125.287 47.5309 124.719 47.3013 124.154 47.0725C122.545 46.4213 120.954 45.7764 119.216 45.3573C116.888 44.7956 114.483 44.5189 112.072 44.5388C107.768 44.574 103.45 45.567 100.812 48.8298C99.7438 50.1514 99.0471 51.6705 99.5904 53.3017C99.886 54.189 100.444 54.9946 101.053 55.7354L101.261 55.9878C101.595 56.3944 101.886 56.7995 101.973 57.2307C102.046 57.592 101.989 57.9742 101.701 58.3931C101.52 58.6567 101.29 58.8932 101.058 59.1289C100.891 59.2989 100.723 59.4686 100.579 59.6513C100.288 60.0197 100.03 60.4164 99.8285 60.8302C99.4331 61.6401 99.2654 62.5114 99.2303 63.3902C99.1878 64.4503 99.3541 65.4874 99.5191 66.526C99.6361 67.2624 99.7528 67.9996 99.7999 68.7457C99.8081 68.8759 99.7637 68.9729 99.7015 69.0447C99.6254 69.1325 99.5143 69.1879 99.3879 69.2032C99.3495 69.2079 99.3098 69.2086 99.2699 69.2055C99.2895 69.2772 99.3068 69.3493 99.3218 69.4217C99.2419 69.3296 99.1569 69.2403 99.0672 69.1539C99.0614 69.1513 99.0558 69.1486 99.0501 69.1459C98.9576 69.1003 98.8793 69.0309 98.8299 68.9415C98.7028 68.8357 98.5683 68.7353 98.4271 68.6409C97.6927 68.1498 96.8351 67.8587 95.9748 67.849C95.1455 67.8397 94.3141 68.0928 93.6749 68.6274C92.4044 69.6898 92.0322 71.4241 92.0189 72.9131C92.0055 74.4332 92.398 76.2574 93.8766 77.2012C94.4698 77.5797 95.1942 77.8072 95.9239 77.8137C96.5289 77.8192 97.1078 77.6273 97.6777 77.4446C97.8535 77.3882 98.0284 77.3322 98.2029 77.2813C98.4011 77.2234 98.5818 77.2271 98.7393 77.2694C98.9168 77.317 99.0675 77.4154 99.18 77.5467C99.2921 77.6774 99.3656 77.8411 99.3884 78.0125C99.4105 78.1785 99.3851 78.3508 99.3067 78.5062C99.287 78.5453 99.2662 78.5833 99.2446 78.6204L99.5699 79.0997C100.815 80.9302 102.082 82.7273 103.744 84.3006C104.697 85.2037 105.708 86.0559 106.817 86.8019L106.977 86.9084C107.073 86.9713 107.179 87.049 107.292 87.132C107.616 87.3691 108.003 87.6871 108.365 87.6996C108.472 87.7034 108.566 87.6913 108.652 87.6813C108.858 87.6571 109.03 87.65 109.2 87.7121C109.337 87.7621 109.479 87.8553 109.624 88.048C109.723 88.1784 109.773 88.342 109.773 88.508C109.773 88.6747 109.722 88.8415 109.631 88.9733C109.443 89.2462 109.215 89.4152 108.968 89.5111C108.692 89.6182 108.387 89.6345 108.071 89.5816C107.291 89.4511 106.427 88.872 105.877 88.494L105.771 88.421C104.553 87.5885 103.399 86.6673 102.385 85.6371C100.657 83.8828 99.1053 81.8155 98.3082 79.5566C97.7465 79.8874 97.0524 80.0444 96.3268 80.0691C95.2695 80.1051 94.1506 79.8614 93.326 79.5109C91.5088 78.7385 90.4051 77.2777 89.8879 75.5977C89.2872 73.6468 89.4824 71.4039 90.2428 69.6514C90.2649 69.6004 90.2879 69.5497 90.3115 69.4981C87.9704 64.1819 87.2506 58.2786 87.4511 52.6052C87.5449 49.9496 87.7467 47.1635 88.4457 44.5735C88.759 43.4126 89.3033 42.3072 90.1724 41.3933C90.668 40.8721 91.276 40.4664 91.8868 40.0618C92.4158 39.7114 92.9469 39.3617 93.3937 38.9242L93.605 38.7164C93.6508 38.6712 93.6965 38.6261 93.7421 38.581C94.5138 37.8187 95.265 37.079 96.2014 36.4539C97.2874 35.729 98.4858 35.1617 99.731 34.6905C102.414 33.6757 105.301 33.0673 108.157 32.5966C114.336 31.5784 120.68 31.5282 126.783 32.9594C129.621 33.6247 132.375 34.5354 135.124 35.445C135.38 35.5295 135.635 35.6139 135.89 35.6982C138.027 36.4033 140.164 37.1054 142.302 37.8075C143.296 38.1338 144.289 38.4601 145.283 38.7867C145.498 38.8576 145.709 39.0103 145.829 39.2C145.947 39.3851 145.982 39.601 145.887 39.8159C145.277 41.2002 144.508 42.4988 143.572 43.7116C143.897 43.9099 144.174 44.1737 144.384 44.4824C144.648 44.8729 144.805 45.3351 144.816 45.8255C144.852 47.4679 143.184 48.5812 141.801 49.3865C141.672 49.4616 141.544 49.5059 141.421 49.5263C142.761 54.1203 144.045 58.7298 145.135 63.3759L145.21 63.6979C146.333 68.5603 147.058 73.5224 145.996 78.4494C145.081 82.6921 142.956 86.7867 139.636 89.9473C136.381 93.0449 132.015 94.995 127.291 95.4297ZM98.2186 67.4585C97.6405 65.8141 97.3341 64.025 97.5553 62.3582C97.6945 61.3104 98.046 60.3017 98.6183 59.3782C98.946 58.8493 99.3455 58.3596 99.7815 57.8985L99.9319 57.7436C100.008 57.6645 100.084 57.5917 100.107 57.5006C100.121 57.4476 100.107 57.3897 100.071 57.3205C99.9915 57.1672 99.8435 57.0195 99.7051 56.8753C99.6171 56.7836 99.5311 56.6937 99.459 56.6062C98.1919 55.0689 97.247 53.2387 97.5542 51.2893C97.8538 49.3873 99.2445 47.6144 100.725 46.2783C103.985 43.3363 109.039 42.6603 113.467 42.8226C116.045 42.9169 118.618 43.3241 121.073 44.0353C122.283 44.3861 123.466 44.8133 124.617 45.303L124.871 45.4125C125.009 45.4722 125.146 45.5325 125.283 45.5929C126.182 45.988 127.085 46.387 128.06 46.6019C129.966 47.0213 131.259 46.1379 132.618 45.247C133.083 44.9417 133.556 44.6321 134.059 44.3604L134.162 44.3056C135.069 43.8346 136.153 43.5176 137.195 43.5318C138.1 43.5442 138.973 43.8031 139.683 44.415C139.829 44.5408 139.913 44.678 139.953 44.8145C140.031 44.9133 140.095 45.0311 140.136 45.1703C140.391 46.0265 140.644 46.8834 140.897 47.7405L141.103 47.6212C141.715 47.265 142.38 46.8579 142.681 46.262C142.796 46.0326 142.78 45.6505 142.634 45.3696C142.583 45.2714 142.516 45.1841 142.423 45.1296C142.355 45.09 142.274 45.0714 142.179 45.0782C141.948 45.1049 141.736 45.0746 141.557 45.0066C141.35 44.9282 141.185 44.7991 141.078 44.6436C140.968 44.4844 140.918 44.2972 140.945 44.103C140.968 43.9361 141.048 43.7617 141.207 43.5979C142.25 42.5195 143.129 41.33 143.798 40.0388L139.378 38.5733C137.803 38.0511 136.227 37.5295 134.65 37.0099L133.787 36.7256C130.92 35.7831 128.036 34.862 125.055 34.2552C119.13 33.0494 112.951 33.3328 107.042 34.4679L106.685 34.537C104.206 35.0216 101.693 35.6079 99.4168 36.6271C98.2997 37.1273 97.2378 37.7356 96.3259 38.5041C95.9232 38.8435 95.5591 39.2151 95.1949 39.5861C94.6844 40.1062 94.1734 40.6248 93.5665 41.0629L93.0032 41.4672C92.1652 42.0724 91.4093 42.6621 90.9364 43.6008C90.442 44.5821 90.206 45.6662 90.0134 46.7224C89.5278 49.3833 89.3361 52.0867 89.3544 54.7819C89.3853 59.3074 90.1524 63.7406 91.1215 68.1583C91.899 67.161 92.9912 66.3878 94.393 66.223C95.3069 66.1155 96.213 66.2682 96.9987 66.6304C97.4528 66.8398 97.8666 67.1191 98.2186 67.4585V67.4585ZM96.7498 72.8321C95.7261 72.4767 94.6513 72.3603 93.5683 72.5302C93.4549 72.548 93.3467 72.5268 93.2557 72.4794C93.1635 72.4314 93.0908 72.3554 93.0514 72.2716C93.0058 72.1746 93.0034 72.0697 93.0437 71.9765C93.0786 71.8957 93.1452 71.8171 93.2675 71.7647C94.4402 71.2631 95.7437 71.0418 97.0374 71.1993L97.1653 71.2155C97.8267 71.3034 98.7568 71.4885 99.4543 71.8527C100.002 72.1388 100.403 72.5333 100.503 73.0486C100.555 73.3171 100.481 73.5975 100.308 73.8007C100.141 73.9972 99.8859 74.1281 99.5555 74.1197C98.9728 74.1048 98.6278 73.8841 98.2126 73.5982C98.1623 73.5635 98.1106 73.528 98.0569 73.492C97.6558 73.223 97.2175 72.9945 96.7498 72.8321Z" fill="black"/>
<path fill-rule="evenodd" clip-rule="evenodd" d="M128.205 83.3363C127.173 82.9597 126.252 82.3316 125.579 81.5292C125.345 81.2503 125.284 80.9558 125.333 80.6864C125.388 80.3834 125.589 80.1089 125.862 79.9247C126.136 79.74 126.479 79.6489 126.81 79.6953C127.099 79.7357 127.385 79.8767 127.612 80.1693L127.66 80.2278C128.06 80.7121 128.581 81.1094 129.176 81.3655C129.748 81.6124 130.389 81.7276 131.052 81.6606C132.314 81.533 133.185 80.9224 134.11 80.0931C134.224 79.9884 134.339 79.8804 134.454 79.7707C134.527 79.6712 134.628 79.6073 134.74 79.5737C134.865 79.5365 135.006 79.5386 135.135 79.5789C135.259 79.6177 135.37 79.6913 135.445 79.7893C135.516 79.8824 135.556 79.9975 135.543 80.1298C135.458 80.9892 134.956 81.7562 134.242 82.3585C133.45 83.0274 132.399 83.4901 131.41 83.6524C130.321 83.8312 129.21 83.7031 128.205 83.3363V83.3363ZM131.924 70.0778C133.084 70.708 134.85 72.1776 133.603 73.7401C132.135 75.1178 130.021 73.5382 128.98 72.8238C128.014 72.2701 126.929 73.6941 127.825 74.3406C135.351 79.3243 138.405 70.2426 132.511 69.3367C131.862 69.2369 131.621 69.8828 131.924 70.0778ZM118.437 64.2806C118.565 62.8585 120.987 62.5356 121.228 63.9428C121.443 65.2033 121.189 66.3612 120.555 67.4961C119.948 68.5803 118.423 68.0744 118.308 67.0872C118.154 65.7638 118.358 65.1651 118.437 64.2806ZM136.87 63.651C137.207 63.2555 137.695 62.9856 138.279 63.1381C140.103 63.615 139.565 65.9318 138.925 67.0595C138.576 67.6719 137.451 67.8272 136.942 67.288C136.113 66.4087 135.716 64.6526 136.77 63.7865C136.799 63.7417 136.831 63.6965 136.87 63.651ZM120.529 58.0583L120.817 58.0132C121.709 57.8752 122.817 57.7427 123.448 58.3838C123.783 58.7238 123.898 59.3557 123.448 59.6811C122.657 60.2537 121.783 60.0318 120.835 60.0803C120.054 60.1204 119.303 60.236 118.551 60.4284C116.9 60.8503 115.555 61.6206 114.145 62.4664C113.96 62.5774 113.772 62.3658 113.86 62.2111C114.674 60.7854 116.251 59.6143 117.83 58.9004C118.674 58.5194 119.596 58.2033 120.529 58.0583ZM135.206 57.4196L135.427 57.46C137.828 57.9088 140.947 58.8053 142.083 60.9143C142.127 61.2126 142.081 61.2765 142.044 61.3182L142.031 61.3321C142.001 61.3678 141.976 61.4169 141.832 61.4575C141.792 61.449 141.751 61.4399 141.71 61.4303C141.189 61.3082 140.777 61.1399 140.378 60.9653L139.945 60.7746C139.443 60.5544 138.936 60.3423 138.399 60.1856C137.254 59.8514 136.075 59.616 134.879 59.4903C134.619 59.4631 134.37 59.3848 134.173 59.2506C133.986 59.1232 133.843 58.9469 133.778 58.7125C133.693 58.4092 133.718 58.1796 133.9 57.9059C134.036 57.7004 134.232 57.558 134.457 57.4762C134.686 57.3928 134.947 57.3731 135.206 57.4196Z" fill="black"/>
<path fill-rule="evenodd" clip-rule="evenodd" d="M149.751 59.6239C149.625 59.6051 149.498 59.5874 149.372 59.5708C149.273 59.5207 149.157 59.4821 149.022 59.4589C148.714 59.389 148.409 59.3419 148.103 59.3165C143.723 58.4348 133.59 59.6867 133.172 63.0299C131.777 63.4463 130.57 63.0734 128.953 63.1105C127.722 58.5099 106.447 59.1593 105.424 61.9329C105.42 61.9319 105.416 61.9311 105.412 61.93C104.429 61.6579 102.98 61.7235 101.854 61.6804C99.4518 61.6354 97.0463 61.8269 94.6954 62.2802C90.2932 62.9059 84.2852 63.6384 87.3469 68.5552C87.3475 68.556 87.3479 68.557 87.3487 68.5578L87.3492 68.5574C87.8768 69.0411 88.7723 68.6516 88.8056 67.9967C87.7763 65.6674 90.1012 65.3877 91.89 64.7184C96.341 63.2881 100.873 63.0899 105.476 63.5323C105.822 63.897 106.348 64.215 106.903 64.3814C109.981 64.8384 108.359 66.8804 110.305 67.1774C109.947 74.2958 119.61 78.1814 125.209 73.502C127.444 71.5473 127.977 68.6516 128.495 66.0415C128.769 65.9864 128.944 65.8524 129.045 65.675C129.704 65.0865 130.118 64.543 131.422 64.3814C132.725 64.2199 133.728 64.5441 133.864 64.6434C133.898 64.705 133.935 64.7668 133.977 64.8286C134.037 64.9207 134.118 64.9942 134.21 65.052C132.923 72.1405 139.076 76.6233 145.287 72.9469C147.986 70.6762 148.556 67.1998 148.669 64.0969C149.035 63.8994 149.267 63.5168 149.14 63.0356C148.965 62.3724 149.375 61.7982 150.026 61.5099C150.873 61.1354 150.724 59.7679 149.751 59.6239M123.062 62.9868C122.291 62.8351 121.962 63.8983 122.735 64.0503C123.283 64.158 123.747 64.4051 124.061 64.8236L124.094 64.869C124.515 65.468 125.579 64.9151 125.155 64.3123C124.678 63.634 123.937 63.1588 123.062 62.9868ZM145.643 62.3276C145.371 62.1564 144.959 62.2835 144.802 62.5255C144.628 62.792 144.742 63.0886 144.996 63.2629L145.022 63.2799C145.256 63.4271 145.483 63.691 145.512 63.9613L145.514 63.9951C145.545 64.7026 146.774 64.7061 146.743 63.9951C146.713 63.2995 146.263 62.7184 145.643 62.3276Z" fill="black"/>
</svg>
