<svg width="130" height="24" viewBox="0 0 130 24" fill="none" xmlns="http://www.w3.org/2000/svg">
<path d="M0.333332 12C0.333332 17.891 5.10896 22.6667 11 22.6667C16.891 22.6667 21.6667 17.891 21.6667 12C21.6667 6.10896 16.891 1.33333 11 1.33333C5.10896 1.33333 0.333332 6.10896 0.333332 12ZM130 12L110 0.452993V23.547L130 12ZM17.375 14C18.4796 14 19.375 13.1046 19.375 12C19.375 10.8954 18.4796 10 17.375 10V14ZM34.375 10C33.2704 10 32.375 10.8954 32.375 12C32.375 13.1046 33.2704 14 34.375 14V10ZM47.125 14C48.2296 14 49.125 13.1046 49.125 12C49.125 10.8954 48.2296 10 47.125 10V14ZM64.125 10C63.0204 10 62.125 10.8954 62.125 12C62.125 13.1046 63.0204 14 64.125 14V10ZM76.875 14C77.9796 14 78.875 13.1046 78.875 12C78.875 10.8954 77.9796 10 76.875 10V14ZM93.875 10C92.7704 10 91.875 10.8954 91.875 12C91.875 13.1046 92.7704 14 93.875 14V10ZM106.625 14C107.73 14 108.625 13.1046 108.625 12C108.625 10.8954 107.73 10 106.625 10V14ZM123.625 10C122.52 10 121.625 10.8954 121.625 12C121.625 13.1046 122.52 14 123.625 14V10ZM11 14H17.375V10H11V14ZM34.375 14H47.125V10H34.375V14ZM64.125 14H76.875V10H64.125V14ZM93.875 14H106.625V10H93.875V14Z" fill="#0E0E2C"/>
</svg>
