<svg width="506" height="464" viewBox="0 0 506 464" fill="none" xmlns="http://www.w3.org/2000/svg">
<g filter="url(#filter0_d_1052_1263)">
<path d="M501 241.797L501 375.158C501 381.785 495.627 387.158 489 387.158L488.249 387.158C481.622 387.158 476.249 392.531 476.249 399.158L476.249 446.594C476.249 453.221 470.877 458.594 464.249 458.594L444.98 458.594C438.353 458.594 432.98 453.221 432.98 446.594L432.98 421.06C432.98 414.433 427.607 409.06 420.98 409.06L313.926 409.06C307.299 409.06 301.926 403.688 301.926 397.06L301.926 339.179C301.926 332.551 296.553 327.179 289.926 327.179L269.232 327.179C262.605 327.179 257.232 332.551 257.232 339.179L257.232 424.354C257.232 430.982 251.86 436.354 245.232 436.354L141.561 436.354C134.934 436.354 129.561 430.982 129.561 424.354L129.561 367.82C129.561 361.193 124.189 355.82 117.561 355.82L41.8462 355.82C35.2188 355.82 29.8462 350.448 29.8462 343.82L29.8462 309.526C29.8462 302.899 24.4736 297.526 17.8462 297.526L13 297.526C6.37263 297.526 1.00005 292.154 1.00005 285.526L1.00007 56.1312C1.00007 49.5037 6.37266 44.1312 13.0001 44.1312L78.3875 44.1312C85.015 44.1312 90.3875 38.7586 90.3875 32.1312L90.3876 13.0001C90.3876 6.37268 95.7601 1.00012 102.388 1.00012L241.137 1.00013C247.764 1.00013 253.137 6.37269 253.137 13.0001L253.137 68.523C253.137 75.1504 258.509 80.523 265.137 80.523L323.402 80.523C330.029 80.523 335.402 75.1504 335.402 68.523L335.402 42.9897C335.402 36.3623 340.774 30.9897 347.402 30.9897L449.826 30.9897C456.454 30.9897 461.826 36.3623 461.826 42.9897L461.826 217.797C461.826 224.424 467.199 229.797 473.826 229.797L489 229.797C495.627 229.797 501 235.17 501 241.797Z" fill="#CCDDD2"/>
<path d="M501 241.797L501 375.158C501 381.785 495.627 387.158 489 387.158L488.249 387.158C481.622 387.158 476.249 392.531 476.249 399.158L476.249 446.594C476.249 453.221 470.877 458.594 464.249 458.594L444.98 458.594C438.353 458.594 432.98 453.221 432.98 446.594L432.98 421.06C432.98 414.433 427.607 409.06 420.98 409.06L313.926 409.06C307.299 409.06 301.926 403.688 301.926 397.06L301.926 339.179C301.926 332.551 296.553 327.179 289.926 327.179L269.232 327.179C262.605 327.179 257.232 332.551 257.232 339.179L257.232 424.354C257.232 430.982 251.86 436.354 245.232 436.354L141.561 436.354C134.934 436.354 129.561 430.982 129.561 424.354L129.561 367.82C129.561 361.193 124.189 355.82 117.561 355.82L41.8462 355.82C35.2188 355.82 29.8462 350.448 29.8462 343.82L29.8462 309.526C29.8462 302.899 24.4736 297.526 17.8462 297.526L13 297.526C6.37263 297.526 1.00005 292.154 1.00005 285.526L1.00007 56.1312C1.00007 49.5037 6.37266 44.1312 13.0001 44.1312L78.3875 44.1312C85.015 44.1312 90.3875 38.7586 90.3875 32.1312L90.3876 13.0001C90.3876 6.37268 95.7601 1.00012 102.388 1.00012L241.137 1.00013C247.764 1.00013 253.137 6.37269 253.137 13.0001L253.137 68.523C253.137 75.1504 258.509 80.523 265.137 80.523L323.402 80.523C330.029 80.523 335.402 75.1504 335.402 68.523L335.402 42.9897C335.402 36.3623 340.774 30.9897 347.402 30.9897L449.826 30.9897C456.454 30.9897 461.826 36.3623 461.826 42.9897L461.826 217.797C461.826 224.424 467.199 229.797 473.826 229.797L489 229.797C495.627 229.797 501 235.17 501 241.797Z" stroke="#0E0E2C" stroke-width="2" stroke-linejoin="round"/>
</g>
<path d="M108.091 144.199C106.464 145.826 103.832 145.826 102.205 144.199C100.578 142.572 100.578 139.941 102.205 138.314C103.832 136.687 106.464 136.687 108.091 138.314C109.718 139.941 109.718 142.572 108.091 144.199ZM125.691 155.914C124.064 154.287 121.432 154.287 119.805 155.914C118.178 157.541 118.178 160.172 119.805 161.799C121.432 163.426 124.064 163.426 125.691 161.799C127.318 160.172 127.318 157.541 125.691 155.914ZM143.29 173.514C141.663 171.887 139.032 171.887 137.405 173.514C135.778 175.141 135.778 177.772 137.405 179.399C139.032 181.026 141.663 181.026 143.29 179.399C144.917 177.772 144.917 175.141 143.29 173.514ZM160.89 191.113C159.263 189.486 156.632 189.486 155.005 191.113C153.378 192.74 153.378 195.372 155.005 196.999C156.632 198.626 159.263 198.626 160.89 196.999C162.517 195.372 162.517 192.74 160.89 191.113ZM178.49 208.713C176.863 207.086 174.231 207.086 172.605 208.713C170.978 210.34 170.978 212.972 172.605 214.599C174.231 216.226 176.863 216.226 178.49 214.599C180.117 212.972 180.117 210.34 178.49 208.713ZM90.491 155.914C88.864 154.287 86.2325 154.287 84.6055 155.914C82.9785 157.541 82.9785 160.172 84.6055 161.799C86.2325 163.426 88.864 163.426 90.491 161.799C92.118 160.172 92.118 157.541 90.491 155.914ZM108.091 173.514C106.464 171.887 103.832 171.887 102.205 173.514C100.578 175.141 100.578 177.772 102.205 179.399C103.832 181.026 106.464 181.026 108.091 179.399C109.718 177.772 109.718 175.141 108.091 173.514ZM125.691 191.113C124.064 189.486 121.432 189.486 119.805 191.113C118.178 192.74 118.178 195.372 119.805 196.999C121.432 198.626 124.064 198.626 125.691 196.999C127.318 195.372 127.318 192.74 125.691 191.113ZM143.29 208.713C141.663 207.086 139.032 207.086 137.405 208.713C135.778 210.34 135.778 212.972 137.405 214.599C139.032 216.226 141.663 216.226 143.29 214.599C144.917 212.972 144.917 210.34 143.29 208.713ZM160.89 226.313C159.263 224.686 156.632 224.686 155.005 226.313C153.378 227.94 153.378 230.571 155.005 232.198C156.632 233.825 159.263 233.825 160.89 232.198C162.517 230.571 162.517 227.94 160.89 226.313ZM72.8912 173.514C71.2642 171.887 68.6327 171.887 67.0057 173.514C65.3787 175.141 65.3787 177.772 67.0057 179.399C68.6327 181.026 71.2642 181.026 72.8912 179.399C74.5182 177.772 74.5182 175.141 72.8912 173.514ZM90.491 191.113C88.864 189.486 86.2325 189.486 84.6055 191.113C82.9785 192.74 82.9785 195.372 84.6055 196.999C86.2325 198.626 88.864 198.626 90.491 196.999C92.118 195.372 92.118 192.74 90.491 191.113ZM108.091 208.713C106.464 207.086 103.832 207.086 102.205 208.713C100.578 210.34 100.578 212.972 102.205 214.599C103.832 216.226 106.464 216.226 108.091 214.599C109.718 212.972 109.718 210.34 108.091 208.713ZM125.691 226.313C124.064 224.686 121.432 224.686 119.805 226.313C118.178 227.94 118.178 230.571 119.805 232.198C121.432 233.825 124.064 233.825 125.691 232.198C127.318 230.571 127.318 227.94 125.691 226.313ZM143.29 243.913C141.663 242.286 139.032 242.286 137.405 243.913C135.778 245.54 135.778 248.171 137.405 249.798C139.032 251.425 141.663 251.425 143.29 249.798C144.917 248.171 144.917 245.526 143.29 243.913ZM55.2914 191.113C53.6644 189.486 51.0329 189.486 49.4059 191.113C47.7789 192.74 47.7789 195.372 49.4059 196.999C51.0329 198.626 53.6644 198.626 55.2914 196.999C56.9184 195.372 56.9184 192.74 55.2914 191.113ZM72.8912 208.713C71.2642 207.086 68.6327 207.086 67.0057 208.713C65.3787 210.34 65.3787 212.972 67.0057 214.599C68.6327 216.226 71.2642 216.226 72.8912 214.599C74.5182 212.972 74.5182 210.34 72.8912 208.713ZM90.491 226.313C88.864 224.686 86.2325 224.686 84.6055 226.313C82.9785 227.94 82.9785 230.571 84.6055 232.198C86.2325 233.825 88.864 233.825 90.491 232.198C92.118 230.571 92.118 227.94 90.491 226.313ZM108.091 243.913C106.464 242.286 103.832 242.286 102.205 243.913C100.578 245.54 100.578 248.171 102.205 249.798C103.832 251.425 106.464 251.425 108.091 249.798C109.718 248.171 109.718 245.526 108.091 243.913ZM125.691 261.513C124.064 259.886 121.432 259.886 119.805 261.513C118.178 263.14 118.178 265.771 119.805 267.398C121.432 269.025 124.064 269.025 125.691 267.398C127.318 265.771 127.318 263.125 125.691 261.513ZM37.6916 208.713C36.0646 207.086 33.4331 207.086 31.8061 208.713C30.1791 210.34 30.1791 212.972 31.8061 214.599C33.4331 216.226 36.0646 216.226 37.6916 214.599C39.3186 212.972 39.3186 210.34 37.6916 208.713ZM55.2914 226.313C53.6644 224.686 51.0329 224.686 49.4059 226.313C47.7789 227.94 47.7789 230.571 49.4059 232.198C51.0329 233.825 53.6644 233.825 55.2914 232.198C56.9184 230.571 56.9184 227.94 55.2914 226.313ZM72.8912 243.913C71.2642 242.286 68.6327 242.286 67.0057 243.913C65.3787 245.54 65.3787 248.171 67.0057 249.798C68.6327 251.425 71.2642 251.425 72.8912 249.798C74.5182 248.171 74.5182 245.526 72.8912 243.913ZM90.491 261.513C88.864 259.886 86.2325 259.886 84.6055 261.513C82.9785 263.14 82.9785 265.771 84.6055 267.398C86.2325 269.025 88.864 269.025 90.491 267.398C92.118 265.771 92.118 263.125 90.491 261.513ZM108.091 279.098C106.464 277.471 103.832 277.471 102.205 279.098C100.578 280.725 100.578 283.357 102.205 284.984C103.832 286.611 106.464 286.611 108.091 284.984C109.718 283.371 109.718 280.725 108.091 279.098Z" fill="#DDEAE1"/>
<path d="M35.0237 80.8809L49.1158 147.449H20.9315L35.0237 80.8809Z" fill="#0E0E2C"/>
<defs>
<filter id="filter0_d_1052_1263" x="0" y="0" width="506" height="463.594" filterUnits="userSpaceOnUse" color-interpolation-filters="sRGB">
<feFlood flood-opacity="0" result="BackgroundImageFix"/>
<feColorMatrix in="SourceAlpha" type="matrix" values="0 0 0 0 0 0 0 0 0 0 0 0 0 0 0 0 0 0 127 0" result="hardAlpha"/>
<feOffset dx="4" dy="4"/>
<feComposite in2="hardAlpha" operator="out"/>
<feColorMatrix type="matrix" values="0 0 0 0 0 0 0 0 0 0 0 0 0 0 0 0 0 0 1 0"/>
<feBlend mode="normal" in2="BackgroundImageFix" result="effect1_dropShadow_1052_1263"/>
<feBlend mode="normal" in="SourceGraphic" in2="effect1_dropShadow_1052_1263" result="shape"/>
</filter>
</defs>
</svg>
