<svg width="465" height="507" viewBox="0 0 465 507" fill="none" xmlns="http://www.w3.org/2000/svg">
<g filter="url(#filter0_d_1052_1264)">
<path d="M218.077 501.998L84.5234 501.998C77.896 501.998 72.5234 496.625 72.5234 489.998L72.5234 489.247C72.5234 482.62 67.1508 477.247 60.5234 477.247L13 477.247C6.37259 477.247 1 471.875 1 465.247L1.00001 445.978C1.00001 439.351 6.3726 433.978 13 433.978L38.594 433.978C45.2215 433.978 50.594 428.606 50.594 421.978L50.5941 314.924C50.5941 308.297 55.9666 302.924 62.5941 302.924L120.576 302.924C127.203 302.924 132.576 297.551 132.576 290.924L132.576 270.23C132.576 263.603 127.203 258.23 120.576 258.23L35.2667 258.23C28.6393 258.23 23.2667 252.858 23.2667 246.23L23.2668 142.559C23.2668 135.932 28.6393 130.559 35.2667 130.559L91.8992 130.559C98.5267 130.559 103.899 125.187 103.899 118.559L103.899 42.8443C103.899 36.2168 109.272 30.8443 115.899 30.8443L150.265 30.8443C156.892 30.8443 162.265 25.4717 162.265 18.8443L162.265 13.9981C162.265 7.37069 167.638 1.9981 174.265 1.9981L403.971 1.99813C410.598 1.99813 415.971 7.37072 415.971 13.9981L415.971 79.3856C415.971 86.013 421.343 91.3856 427.971 91.3856L447.154 91.3856C453.782 91.3856 459.154 96.7582 459.154 103.386L459.154 242.135C459.154 248.762 453.782 254.135 447.154 254.135L391.534 254.135C384.907 254.135 379.534 259.507 379.534 266.135L379.534 324.4C379.534 331.027 384.907 336.4 391.534 336.4L417.128 336.4C423.756 336.4 429.128 341.772 429.128 348.4L429.128 450.824C429.128 457.452 423.756 462.824 417.128 462.824L242.077 462.824C235.45 462.824 230.077 468.197 230.077 474.824L230.077 489.998C230.077 496.625 224.705 501.998 218.077 501.998Z" fill="#CCDDD2"/>
<path d="M218.077 501.998L84.5234 501.998C77.896 501.998 72.5234 496.625 72.5234 489.998L72.5234 489.247C72.5234 482.62 67.1508 477.247 60.5234 477.247L13 477.247C6.37259 477.247 1 471.875 1 465.247L1.00001 445.978C1.00001 439.351 6.3726 433.978 13 433.978L38.594 433.978C45.2215 433.978 50.594 428.606 50.594 421.978L50.5941 314.924C50.5941 308.297 55.9666 302.924 62.5941 302.924L120.576 302.924C127.203 302.924 132.576 297.551 132.576 290.924L132.576 270.23C132.576 263.603 127.203 258.23 120.576 258.23L35.2667 258.23C28.6393 258.23 23.2667 252.858 23.2667 246.23L23.2668 142.559C23.2668 135.932 28.6393 130.559 35.2667 130.559L91.8992 130.559C98.5267 130.559 103.899 125.187 103.899 118.559L103.899 42.8443C103.899 36.2168 109.272 30.8443 115.899 30.8443L150.265 30.8443C156.892 30.8443 162.265 25.4717 162.265 18.8443L162.265 13.9981C162.265 7.37069 167.638 1.9981 174.265 1.9981L403.971 1.99813C410.598 1.99813 415.971 7.37072 415.971 13.9981L415.971 79.3856C415.971 86.013 421.343 91.3856 427.971 91.3856L447.154 91.3856C453.782 91.3856 459.154 96.7582 459.154 103.386L459.154 242.135C459.154 248.762 453.782 254.135 447.154 254.135L391.534 254.135C384.907 254.135 379.534 259.507 379.534 266.135L379.534 324.4C379.534 331.027 384.907 336.4 391.534 336.4L417.128 336.4C423.756 336.4 429.128 341.772 429.128 348.4L429.128 450.824C429.128 457.452 423.756 462.824 417.128 462.824L242.077 462.824C235.45 462.824 230.077 468.197 230.077 474.824L230.077 489.998C230.077 496.625 224.705 501.998 218.077 501.998Z" stroke="#0E0E2C" stroke-width="2" stroke-linejoin="round"/>
</g>
<path d="M329.57 215.296C331.34 213.526 334.203 213.526 335.973 215.296C337.743 217.067 337.743 219.93 335.973 221.7C334.203 223.47 331.34 223.47 329.57 221.7C327.8 219.93 327.8 217.067 329.57 215.296ZM310.422 202.551C312.192 204.322 315.055 204.322 316.825 202.551C318.595 200.781 318.595 197.918 316.825 196.148C315.055 194.378 312.192 194.378 310.422 196.148C308.651 197.918 308.651 200.781 310.422 202.551ZM291.273 183.403C293.043 185.173 295.906 185.173 297.676 183.403C299.447 181.633 299.447 178.77 297.676 177C295.906 175.23 293.043 175.23 291.273 177C289.503 178.77 289.503 181.633 291.273 183.403ZM272.125 164.255C273.895 166.025 276.758 166.025 278.528 164.255C280.298 162.485 280.298 159.622 278.528 157.852C276.758 156.081 273.895 156.081 272.125 157.852C270.355 159.622 270.355 162.485 272.125 164.255ZM252.977 145.107C254.747 146.877 257.61 146.877 259.38 145.107C261.15 143.336 261.15 140.473 259.38 138.703C257.61 136.933 254.747 136.933 252.977 138.703C251.207 140.473 251.207 143.336 252.977 145.107ZM348.718 202.551C350.488 204.322 353.351 204.322 355.121 202.551C356.891 200.781 356.891 197.918 355.121 196.148C353.351 194.378 350.488 194.378 348.718 196.148C346.948 197.918 346.948 200.781 348.718 202.551ZM329.57 183.403C331.34 185.173 334.203 185.173 335.973 183.403C337.743 181.633 337.743 178.77 335.973 177C334.203 175.23 331.34 175.23 329.57 177C327.8 178.77 327.8 181.633 329.57 183.403ZM310.422 164.255C312.192 166.025 315.055 166.025 316.825 164.255C318.595 162.485 318.595 159.622 316.825 157.852C315.055 156.081 312.192 156.081 310.422 157.852C308.651 159.622 308.651 162.485 310.422 164.255ZM291.273 145.107C293.043 146.877 295.906 146.877 297.676 145.107C299.447 143.336 299.447 140.473 297.676 138.703C295.906 136.933 293.043 136.933 291.273 138.703C289.503 140.473 289.503 143.336 291.273 145.107ZM272.125 125.958C273.895 127.728 276.758 127.728 278.528 125.958C280.298 124.188 280.298 121.325 278.528 119.555C276.758 117.785 273.895 117.785 272.125 119.555C270.355 121.325 270.355 124.188 272.125 125.958ZM367.866 183.403C369.636 185.173 372.499 185.173 374.27 183.403C376.04 181.633 376.04 178.77 374.27 177C372.499 175.23 369.636 175.23 367.866 177C366.096 178.77 366.096 181.633 367.866 183.403ZM348.718 164.255C350.488 166.025 353.351 166.025 355.121 164.255C356.891 162.485 356.891 159.622 355.121 157.852C353.351 156.081 350.488 156.081 348.718 157.852C346.948 159.622 346.948 162.485 348.718 164.255ZM329.57 145.107C331.34 146.877 334.203 146.877 335.973 145.107C337.743 143.336 337.743 140.473 335.973 138.703C334.203 136.933 331.34 136.933 329.57 138.703C327.8 140.473 327.8 143.336 329.57 145.107ZM310.422 125.958C312.192 127.728 315.055 127.728 316.825 125.958C318.595 124.188 318.595 121.325 316.825 119.555C315.055 117.785 312.192 117.785 310.422 119.555C308.651 121.325 308.651 124.188 310.422 125.958ZM291.273 106.81C293.043 108.58 295.906 108.58 297.676 106.81C299.447 105.04 299.447 102.177 297.676 100.407C295.906 98.6366 293.043 98.6366 291.273 100.407C289.503 102.177 289.503 105.055 291.273 106.81ZM387.015 164.255C388.785 166.025 391.648 166.025 393.418 164.255C395.188 162.485 395.188 159.622 393.418 157.852C391.648 156.082 388.785 156.082 387.015 157.852C385.244 159.622 385.244 162.485 387.015 164.255ZM367.866 145.107C369.636 146.877 372.499 146.877 374.27 145.107C376.04 143.337 376.04 140.473 374.27 138.703C372.499 136.933 369.636 136.933 367.866 138.703C366.096 140.473 366.096 143.337 367.866 145.107ZM348.718 125.958C350.488 127.728 353.351 127.728 355.121 125.958C356.891 124.188 356.891 121.325 355.121 119.555C353.351 117.785 350.488 117.785 348.718 119.555C346.948 121.325 346.948 124.188 348.718 125.958ZM329.57 106.81C331.34 108.58 334.203 108.58 335.973 106.81C337.743 105.04 337.743 102.177 335.973 100.407C334.203 98.6366 331.34 98.6366 329.57 100.407C327.8 102.177 327.8 105.055 329.57 106.81ZM310.422 87.6618C312.192 89.4319 315.055 89.4319 316.825 87.6618C318.595 85.8916 318.595 83.0286 316.825 81.2585C315.055 79.4883 312.192 79.4883 310.422 81.2585C308.651 83.0286 308.651 85.907 310.422 87.6618ZM406.163 145.107C407.933 146.877 410.796 146.877 412.566 145.107C414.336 143.337 414.336 140.473 412.566 138.703C410.796 136.933 407.933 136.933 406.163 138.703C404.393 140.473 404.393 143.337 406.163 145.107ZM387.015 125.958C388.785 127.728 391.648 127.728 393.418 125.958C395.188 124.188 395.188 121.325 393.418 119.555C391.648 117.785 388.785 117.785 387.015 119.555C385.244 121.325 385.244 124.188 387.015 125.958ZM367.866 106.81C369.636 108.58 372.499 108.58 374.27 106.81C376.04 105.04 376.04 102.177 374.27 100.407C372.499 98.6366 369.636 98.6366 367.866 100.407C366.096 102.177 366.096 105.055 367.866 106.81ZM348.718 87.6618C350.488 89.4319 353.351 89.4319 355.121 87.6618C356.891 85.8916 356.891 83.0286 355.121 81.2585C353.351 79.4883 350.488 79.4883 348.718 81.2585C346.948 83.0286 346.948 85.907 348.718 87.6618ZM329.57 68.5289C331.34 70.299 334.203 70.299 335.973 68.5289C337.743 66.7588 337.743 63.8957 335.973 62.1256C334.203 60.3555 331.34 60.3555 329.57 62.1256C327.8 63.8804 327.8 66.7588 329.57 68.5289Z" fill="#DDEAE1"/>
<path d="M268.704 61L284.036 133.425L253.372 133.425L268.704 61Z" fill="#0E0E2C"/>
<path d="M88.7039 355L104.036 427.425L73.3719 427.425L88.7039 355Z" fill="#0E0E2C"/>
<defs>
<filter id="filter0_d_1052_1264" x="0" y="0.998047" width="464.154" height="506" filterUnits="userSpaceOnUse" color-interpolation-filters="sRGB">
<feFlood flood-opacity="0" result="BackgroundImageFix"/>
<feColorMatrix in="SourceAlpha" type="matrix" values="0 0 0 0 0 0 0 0 0 0 0 0 0 0 0 0 0 0 127 0" result="hardAlpha"/>
<feOffset dx="4" dy="4"/>
<feComposite in2="hardAlpha" operator="out"/>
<feColorMatrix type="matrix" values="0 0 0 0 0 0 0 0 0 0 0 0 0 0 0 0 0 0 1 0"/>
<feBlend mode="normal" in2="BackgroundImageFix" result="effect1_dropShadow_1052_1264"/>
<feBlend mode="normal" in="SourceGraphic" in2="effect1_dropShadow_1052_1264" result="shape"/>
</filter>
</defs>
</svg>
