<svg width="465" height="506" viewBox="0 0 465 506" fill="none" xmlns="http://www.w3.org/2000/svg">
<g filter="url(#filter0_d_1052_1262)">
<path d="M242.894 0.999991L376.448 0.999996C383.075 0.999997 388.448 6.37257 388.448 13L388.448 13.7507C388.448 20.3781 393.821 25.7507 400.448 25.7507L447.971 25.7507C454.599 25.7507 459.971 31.1233 459.971 37.7507L459.971 57.0199C459.971 63.6474 454.599 69.0199 447.971 69.0199L422.377 69.0199C415.75 69.0199 410.377 74.3925 410.377 81.0199L410.377 188.074C410.377 194.701 405.005 200.074 398.377 200.074L340.395 200.074C333.768 200.074 328.395 205.447 328.395 212.074L328.395 232.768C328.395 239.395 333.768 244.768 340.395 244.768L425.705 244.768C432.332 244.768 437.705 250.14 437.705 256.768L437.705 360.439C437.705 367.066 432.332 372.439 425.705 372.439L369.072 372.439C362.445 372.439 357.072 377.811 357.072 384.439L357.072 460.154C357.072 466.781 351.7 472.154 345.072 472.154L310.706 472.154C304.079 472.154 298.706 477.526 298.706 484.154L298.706 489C298.706 495.627 293.334 501 286.706 501L57.0009 501C50.3735 501 45.0009 495.627 45.0009 489L45.0009 423.612C45.0009 416.985 39.6283 411.612 33.0009 411.612L13.817 411.612C7.18959 411.612 1.817 406.24 1.817 399.612L1.81701 260.863C1.81701 254.236 7.18959 248.863 13.817 248.863L69.4374 248.863C76.0648 248.863 81.4374 243.491 81.4374 236.863L81.4374 178.598C81.4374 171.971 76.0648 166.598 69.4373 166.598L43.8433 166.598C37.2159 166.598 31.8433 161.226 31.8433 154.598L31.8433 52.1738C31.8433 45.5463 37.2159 40.1738 43.8434 40.1738L218.894 40.1738C225.522 40.1738 230.894 34.8012 230.894 28.1738L230.894 13C230.894 6.37257 236.267 0.99999 242.894 0.999991Z" fill="#CCDDD2"/>
<path d="M242.894 0.999991L376.448 0.999996C383.075 0.999997 388.448 6.37257 388.448 13L388.448 13.7507C388.448 20.3781 393.821 25.7507 400.448 25.7507L447.971 25.7507C454.599 25.7507 459.971 31.1233 459.971 37.7507L459.971 57.0199C459.971 63.6474 454.599 69.0199 447.971 69.0199L422.377 69.0199C415.75 69.0199 410.377 74.3925 410.377 81.0199L410.377 188.074C410.377 194.701 405.005 200.074 398.377 200.074L340.395 200.074C333.768 200.074 328.395 205.447 328.395 212.074L328.395 232.768C328.395 239.395 333.768 244.768 340.395 244.768L425.705 244.768C432.332 244.768 437.705 250.14 437.705 256.768L437.705 360.439C437.705 367.066 432.332 372.439 425.705 372.439L369.072 372.439C362.445 372.439 357.072 377.811 357.072 384.439L357.072 460.154C357.072 466.781 351.7 472.154 345.072 472.154L310.706 472.154C304.079 472.154 298.706 477.526 298.706 484.154L298.706 489C298.706 495.627 293.334 501 286.706 501L57.0009 501C50.3735 501 45.0009 495.627 45.0009 489L45.0009 423.612C45.0009 416.985 39.6283 411.612 33.0009 411.612L13.817 411.612C7.18959 411.612 1.817 406.24 1.817 399.612L1.81701 260.863C1.81701 254.236 7.18959 248.863 13.817 248.863L69.4374 248.863C76.0648 248.863 81.4374 243.491 81.4374 236.863L81.4374 178.598C81.4374 171.971 76.0648 166.598 69.4373 166.598L43.8433 166.598C37.2159 166.598 31.8433 161.226 31.8433 154.598L31.8433 52.1738C31.8433 45.5463 37.2159 40.1738 43.8434 40.1738L218.894 40.1738C225.522 40.1738 230.894 34.8012 230.894 28.1738L230.894 13C230.894 6.37257 236.267 0.99999 242.894 0.999991Z" stroke="#0E0E2C" stroke-width="2" stroke-linejoin="round"/>
</g>
<path d="M131.402 287.702C129.632 289.472 126.769 289.472 124.999 287.702C123.228 285.931 123.228 283.068 124.999 281.298C126.769 279.528 129.632 279.528 131.402 281.298C133.172 283.068 133.172 285.931 131.402 287.702ZM150.55 300.447C148.78 298.676 145.917 298.676 144.147 300.447C142.377 302.217 142.377 305.08 144.147 306.85C145.917 308.62 148.78 308.62 150.55 306.85C152.32 305.08 152.32 302.217 150.55 300.447ZM169.698 319.595C167.928 317.825 165.065 317.825 163.295 319.595C161.525 321.365 161.525 324.228 163.295 325.998C165.065 327.768 167.928 327.768 169.698 325.998C171.468 324.228 171.468 321.365 169.698 319.595ZM188.847 338.743C187.076 336.973 184.214 336.973 182.443 338.743C180.673 340.513 180.673 343.376 182.443 345.146C184.214 346.917 187.076 346.917 188.847 345.146C190.617 343.376 190.617 340.513 188.847 338.743ZM207.995 357.891C206.225 356.121 203.362 356.121 201.592 357.891C199.822 359.662 199.822 362.525 201.592 364.295C203.362 366.065 206.225 366.065 207.995 364.295C209.765 362.525 209.765 359.662 207.995 357.891ZM112.254 300.447C110.483 298.676 107.62 298.676 105.85 300.447C104.08 302.217 104.08 305.08 105.85 306.85C107.62 308.62 110.483 308.62 112.254 306.85C114.024 305.08 114.024 302.217 112.254 300.447ZM131.402 319.595C129.632 317.825 126.769 317.825 124.999 319.595C123.228 321.365 123.228 324.228 124.999 325.998C126.769 327.768 129.632 327.768 131.402 325.998C133.172 324.228 133.172 321.365 131.402 319.595ZM150.55 338.743C148.78 336.973 145.917 336.973 144.147 338.743C142.377 340.513 142.377 343.376 144.147 345.146C145.917 346.917 148.78 346.917 150.55 345.146C152.32 343.376 152.32 340.513 150.55 338.743ZM169.698 357.891C167.928 356.121 165.065 356.121 163.295 357.891C161.525 359.662 161.525 362.525 163.295 364.295C165.065 366.065 167.928 366.065 169.698 364.295C171.468 362.525 171.468 359.662 169.698 357.891ZM188.847 377.04C187.076 375.27 184.214 375.27 182.443 377.04C180.673 378.81 180.673 381.673 182.443 383.443C184.214 385.213 187.076 385.213 188.847 383.443C190.617 381.673 190.617 378.81 188.847 377.04ZM93.1053 319.595C91.3351 317.825 88.4721 317.825 86.7019 319.595C84.9318 321.365 84.9318 324.228 86.7019 325.998C88.4721 327.768 91.3351 327.768 93.1053 325.998C94.8754 324.228 94.8754 321.365 93.1053 319.595ZM112.254 338.743C110.483 336.973 107.62 336.973 105.85 338.743C104.08 340.513 104.08 343.376 105.85 345.146C107.62 346.917 110.483 346.917 112.254 345.146C114.024 343.376 114.024 340.513 112.254 338.743ZM131.402 357.891C129.632 356.121 126.769 356.121 124.999 357.891C123.228 359.662 123.228 362.525 124.999 364.295C126.769 366.065 129.632 366.065 131.402 364.295C133.172 362.525 133.172 359.662 131.402 357.891ZM150.55 377.04C148.78 375.27 145.917 375.27 144.147 377.04C142.377 378.81 142.377 381.673 144.147 383.443C145.917 385.213 148.78 385.213 150.55 383.443C152.32 381.673 152.32 378.81 150.55 377.04ZM169.698 396.188C167.928 394.418 165.065 394.418 163.295 396.188C161.525 397.958 161.525 400.821 163.295 402.591C165.065 404.361 167.928 404.361 169.698 402.591C171.468 400.821 171.468 397.943 169.698 396.188ZM73.957 338.743C72.1868 336.973 69.3238 336.973 67.5536 338.743C65.7835 340.513 65.7835 343.376 67.5536 345.146C69.3238 346.917 72.1868 346.917 73.957 345.146C75.7271 343.376 75.7271 340.513 73.957 338.743ZM93.1053 357.891C91.3351 356.121 88.4721 356.121 86.7019 357.891C84.9318 359.662 84.9318 362.525 86.7019 364.295C88.4721 366.065 91.3351 366.065 93.1053 364.295C94.8754 362.525 94.8754 359.662 93.1053 357.891ZM112.254 377.04C110.483 375.27 107.62 375.27 105.85 377.04C104.08 378.81 104.08 381.673 105.85 383.443C107.62 385.213 110.483 385.213 112.254 383.443C114.024 381.673 114.024 378.81 112.254 377.04ZM131.402 396.188C129.632 394.418 126.769 394.418 124.999 396.188C123.228 397.958 123.228 400.821 124.999 402.591C126.769 404.361 129.632 404.361 131.402 402.591C133.172 400.821 133.172 397.943 131.402 396.188ZM150.55 415.336C148.78 413.566 145.917 413.566 144.147 415.336C142.377 417.106 142.377 419.969 144.147 421.74C145.917 423.51 148.78 423.51 150.55 421.74C152.32 419.969 152.32 417.091 150.55 415.336ZM54.8087 357.891C53.0386 356.121 50.1755 356.121 48.4054 357.891C46.6352 359.662 46.6352 362.525 48.4054 364.295C50.1755 366.065 53.0386 366.065 54.8087 364.295C56.5788 362.525 56.5788 359.662 54.8087 357.891ZM73.957 377.04C72.1868 375.27 69.3238 375.27 67.5536 377.04C65.7835 378.81 65.7835 381.673 67.5536 383.443C69.3238 385.213 72.1868 385.213 73.957 383.443C75.7271 381.673 75.7271 378.81 73.957 377.04ZM93.1053 396.188C91.3351 394.418 88.4721 394.418 86.7019 396.188C84.9318 397.958 84.9318 400.821 86.7019 402.591C88.4721 404.361 91.3351 404.361 93.1053 402.591C94.8754 400.821 94.8754 397.943 93.1053 396.188ZM112.254 415.336C110.483 413.566 107.62 413.566 105.85 415.336C104.08 417.106 104.08 419.969 105.85 421.74C107.62 423.51 110.483 423.51 112.254 421.74C114.024 419.969 114.024 417.091 112.254 415.336ZM131.402 434.469C129.632 432.699 126.769 432.699 124.999 434.469C123.228 436.239 123.228 439.102 124.999 440.872C126.769 442.643 129.632 442.643 131.402 440.872C133.172 439.118 133.172 436.239 131.402 434.469Z" fill="#DDEAE1"/>
<path d="M391.838 264.949L407.17 337.374H376.506L391.838 264.949Z" fill="#0E0E2C"/>
<path d="M64.5852 51.4297L79.9172 123.855H49.2532L64.5852 51.4297Z" fill="#0E0E2C"/>
<defs>
<filter id="filter0_d_1052_1262" x="0.817017" y="0" width="464.154" height="506" filterUnits="userSpaceOnUse" color-interpolation-filters="sRGB">
<feFlood flood-opacity="0" result="BackgroundImageFix"/>
<feColorMatrix in="SourceAlpha" type="matrix" values="0 0 0 0 0 0 0 0 0 0 0 0 0 0 0 0 0 0 127 0" result="hardAlpha"/>
<feOffset dx="4" dy="4"/>
<feComposite in2="hardAlpha" operator="out"/>
<feColorMatrix type="matrix" values="0 0 0 0 0 0 0 0 0 0 0 0 0 0 0 0 0 0 1 0"/>
<feBlend mode="normal" in2="BackgroundImageFix" result="effect1_dropShadow_1052_1262"/>
<feBlend mode="normal" in="SourceGraphic" in2="effect1_dropShadow_1052_1262" result="shape"/>
</filter>
</defs>
</svg>
