<svg width="506" height="465" viewBox="0 0 506 465" fill="none" xmlns="http://www.w3.org/2000/svg">
<g filter="url(#filter0_d_1052_1261)">
<path d="M1 218.255V84.579C1 77.9516 6.37258 72.579 13 72.579H13.7507C20.3781 72.579 25.7507 67.2064 25.7507 60.579V13C25.7507 6.37258 31.1233 1 37.7507 1H57.0199C63.6474 1 69.0199 6.37259 69.0199 13V38.6326C69.0199 45.26 74.3925 50.6326 81.0199 50.6326H188.074C194.701 50.6326 200.074 56.0052 200.074 62.6326V120.678C200.074 127.306 205.447 132.678 212.074 132.678H232.768C239.395 132.678 244.768 127.306 244.768 120.678V35.284C244.768 28.6566 250.14 23.284 256.768 23.284H360.439C367.066 23.284 372.439 28.6566 372.439 35.284V91.9792C372.439 98.6066 377.811 103.979 384.439 103.979H460.154C466.781 103.979 472.154 109.352 472.154 115.979V150.39C472.154 157.018 477.526 162.39 484.154 162.39H489C495.627 162.39 501 167.763 501 174.39V404.293C501 410.921 495.627 416.293 489 416.293H423.613C416.985 416.293 411.613 421.666 411.613 428.293V447.511C411.613 454.138 406.24 459.511 399.613 459.511H260.863C254.236 459.511 248.863 454.138 248.863 447.511V391.828C248.863 385.201 243.491 379.828 236.863 379.828H178.598C171.971 379.828 166.598 385.201 166.598 391.828V417.461C166.598 424.088 161.226 429.461 154.598 429.461H52.1738C45.5464 429.461 40.1738 424.088 40.1738 417.461V242.255C40.1738 235.628 34.8012 230.255 28.1738 230.255H13C6.37258 230.255 1 224.883 1 218.255Z" fill="#CCDDD2"/>
<path d="M1 218.255V84.579C1 77.9516 6.37258 72.579 13 72.579H13.7507C20.3781 72.579 25.7507 67.2064 25.7507 60.579V13C25.7507 6.37258 31.1233 1 37.7507 1H57.0199C63.6474 1 69.0199 6.37259 69.0199 13V38.6326C69.0199 45.26 74.3925 50.6326 81.0199 50.6326H188.074C194.701 50.6326 200.074 56.0052 200.074 62.6326V120.678C200.074 127.306 205.447 132.678 212.074 132.678H232.768C239.395 132.678 244.768 127.306 244.768 120.678V35.284C244.768 28.6566 250.14 23.284 256.768 23.284H360.439C367.066 23.284 372.439 28.6566 372.439 35.284V91.9792C372.439 98.6066 377.811 103.979 384.439 103.979H460.154C466.781 103.979 472.154 109.352 472.154 115.979V150.39C472.154 157.018 477.526 162.39 484.154 162.39H489C495.627 162.39 501 167.763 501 174.39V404.293C501 410.921 495.627 416.293 489 416.293H423.613C416.985 416.293 411.613 421.666 411.613 428.293V447.511C411.613 454.138 406.24 459.511 399.613 459.511H260.863C254.236 459.511 248.863 454.138 248.863 447.511V391.828C248.863 385.201 243.491 379.828 236.863 379.828H178.598C171.971 379.828 166.598 385.201 166.598 391.828V417.461C166.598 424.088 161.226 429.461 154.598 429.461H52.1738C45.5464 429.461 40.1738 424.088 40.1738 417.461V242.255C40.1738 235.628 34.8012 230.255 28.1738 230.255H13C6.37258 230.255 1 224.883 1 218.255Z" stroke="#0E0E2C" stroke-width="2" stroke-linejoin="round"/>
</g>
<path d="M388.862 273.56C387.107 275.315 384.268 275.315 382.513 273.56C380.758 271.805 380.758 268.966 382.513 267.211C384.268 265.456 387.107 265.456 388.862 267.211C390.617 268.966 390.617 271.805 388.862 273.56ZM407.847 286.196C406.092 284.441 403.253 284.441 401.498 286.196C399.743 287.951 399.743 290.79 401.498 292.545C403.253 294.3 406.092 294.3 407.847 292.545C409.602 290.79 409.602 287.951 407.847 286.196ZM426.832 305.181C425.077 303.426 422.239 303.426 420.484 305.181C418.728 306.937 418.728 309.775 420.484 311.53C422.239 313.285 425.077 313.285 426.832 311.53C428.587 309.775 428.587 306.937 426.832 305.181ZM445.818 324.167C444.063 322.412 441.224 322.412 439.469 324.167C437.714 325.922 437.714 328.76 439.469 330.516C441.224 332.271 444.063 332.271 445.818 330.516C447.573 328.76 447.573 325.922 445.818 324.167ZM464.803 343.152C463.048 341.397 460.209 341.397 458.454 343.152C456.699 344.907 456.699 347.746 458.454 349.501C460.209 351.256 463.048 351.256 464.803 349.501C466.558 347.746 466.558 344.907 464.803 343.152ZM369.876 286.196C368.121 284.441 365.283 284.441 363.528 286.196C361.773 287.951 361.773 290.79 363.528 292.545C365.283 294.3 368.121 294.3 369.876 292.545C371.632 290.79 371.632 287.951 369.876 286.196ZM388.862 305.181C387.107 303.426 384.268 303.426 382.513 305.181C380.758 306.937 380.758 309.775 382.513 311.53C384.268 313.285 387.107 313.285 388.862 311.53C390.617 309.775 390.617 306.937 388.862 305.181ZM407.847 324.167C406.092 322.412 403.253 322.412 401.498 324.167C399.743 325.922 399.743 328.76 401.498 330.516C403.253 332.271 406.092 332.271 407.847 330.516C409.602 328.76 409.602 325.922 407.847 324.167ZM426.832 343.152C425.077 341.397 422.239 341.397 420.484 343.152C418.728 344.907 418.728 347.746 420.484 349.501C422.239 351.256 425.077 351.256 426.832 349.501C428.587 347.746 428.587 344.907 426.832 343.152ZM445.818 362.137C444.063 360.382 441.224 360.382 439.469 362.137C437.714 363.892 437.714 366.731 439.469 368.486C441.224 370.241 444.063 370.241 445.818 368.486C447.573 366.731 447.573 363.892 445.818 362.137ZM350.891 305.181C349.136 303.426 346.297 303.426 344.542 305.181C342.787 306.937 342.787 309.775 344.542 311.53C346.297 313.285 349.136 313.285 350.891 311.53C352.646 309.775 352.646 306.937 350.891 305.181ZM369.876 324.167C368.121 322.412 365.283 322.412 363.528 324.167C361.773 325.922 361.773 328.76 363.528 330.516C365.283 332.271 368.121 332.271 369.876 330.516C371.632 328.76 371.632 325.922 369.876 324.167ZM388.862 343.152C387.107 341.397 384.268 341.397 382.513 343.152C380.758 344.907 380.758 347.746 382.513 349.501C384.268 351.256 387.107 351.256 388.862 349.501C390.617 347.746 390.617 344.907 388.862 343.152ZM407.847 362.137C406.092 360.382 403.253 360.382 401.498 362.137C399.743 363.892 399.743 366.731 401.498 368.486C403.253 370.241 406.092 370.241 407.847 368.486C409.602 366.731 409.602 363.892 407.847 362.137ZM426.832 381.123C425.077 379.368 422.239 379.368 420.484 381.123C418.728 382.878 418.728 385.716 420.484 387.472C422.239 389.227 425.077 389.227 426.832 387.472C428.587 385.716 428.587 382.863 426.832 381.123ZM331.906 324.167C330.151 322.412 327.312 322.412 325.557 324.167C323.802 325.922 323.802 328.76 325.557 330.516C327.312 332.271 330.151 332.271 331.906 330.516C333.661 328.76 333.661 325.922 331.906 324.167ZM350.891 343.152C349.136 341.397 346.297 341.397 344.542 343.152C342.787 344.907 342.787 347.746 344.542 349.501C346.297 351.256 349.136 351.256 350.891 349.501C352.646 347.746 352.646 344.907 350.891 343.152ZM369.876 362.137C368.121 360.382 365.283 360.382 363.528 362.137C361.773 363.892 361.773 366.731 363.528 368.486C365.283 370.241 368.121 370.241 369.876 368.486C371.632 366.731 371.632 363.892 369.876 362.137ZM388.862 381.123C387.107 379.368 384.268 379.368 382.513 381.123C380.758 382.878 380.758 385.716 382.513 387.472C384.268 389.227 387.107 389.227 388.862 387.472C390.617 385.716 390.617 382.863 388.862 381.123ZM407.847 400.108C406.092 398.353 403.253 398.353 401.498 400.108C399.743 401.863 399.743 404.702 401.498 406.457C403.253 408.212 406.092 408.212 407.847 406.457C409.602 404.702 409.602 401.848 407.847 400.108ZM312.92 343.152C311.165 341.397 308.327 341.397 306.572 343.152C304.817 344.907 304.817 347.746 306.572 349.501C308.327 351.256 311.165 351.256 312.92 349.501C314.676 347.746 314.676 344.907 312.92 343.152ZM331.906 362.137C330.151 360.382 327.312 360.382 325.557 362.137C323.802 363.892 323.802 366.731 325.557 368.486C327.312 370.241 330.151 370.241 331.906 368.486C333.661 366.731 333.661 363.892 331.906 362.137ZM350.891 381.123C349.136 379.368 346.297 379.368 344.542 381.123C342.787 382.878 342.787 385.716 344.542 387.472C346.297 389.227 349.136 389.227 350.891 387.472C352.646 385.716 352.646 382.863 350.891 381.123ZM369.876 400.108C368.121 398.353 365.283 398.353 363.528 400.108C361.773 401.863 361.773 404.702 363.528 406.457C365.283 408.212 368.121 408.212 369.876 406.457C371.632 404.702 371.632 401.848 369.876 400.108ZM388.862 419.078C387.107 417.323 384.268 417.323 382.513 419.078C380.758 420.833 380.758 423.672 382.513 425.427C384.268 427.182 387.107 427.182 388.862 425.427C390.617 423.687 390.617 420.833 388.862 419.078Z" fill="#DDEAE1"/>
<path d="M78.6596 102.064L91.5578 123.607H65.7613L78.6596 102.064Z" fill="#0E0E2C"/>
<path d="M169.617 294.617L182.055 355.255H157.179L169.617 294.617Z" fill="#0E0E2C"/>
<path d="M107.915 87.1699L120.352 108.712H95.4773L107.915 87.1699Z" fill="#0E0E2C"/>
<path d="M109.511 311.639L122.409 371.479H96.6124L109.511 311.639Z" fill="#0E0E2C"/>
<path d="M137.17 104.191L150.068 125.734H124.272L137.17 104.191Z" fill="#0E0E2C"/>
<defs>
<filter id="filter0_d_1052_1261" x="0" y="0" width="506" height="464.51" filterUnits="userSpaceOnUse" color-interpolation-filters="sRGB">
<feFlood flood-opacity="0" result="BackgroundImageFix"/>
<feColorMatrix in="SourceAlpha" type="matrix" values="0 0 0 0 0 0 0 0 0 0 0 0 0 0 0 0 0 0 127 0" result="hardAlpha"/>
<feOffset dx="4" dy="4"/>
<feComposite in2="hardAlpha" operator="out"/>
<feColorMatrix type="matrix" values="0 0 0 0 0 0 0 0 0 0 0 0 0 0 0 0 0 0 1 0"/>
<feBlend mode="normal" in2="BackgroundImageFix" result="effect1_dropShadow_1052_1261"/>
<feBlend mode="normal" in="SourceGraphic" in2="effect1_dropShadow_1052_1261" result="shape"/>
</filter>
</defs>
</svg>
