<svg width="264" height="215" viewBox="0 0 264 215" fill="none" xmlns="http://www.w3.org/2000/svg">
<path d="M5.33732 118.697L5.33732 53.1135H15.8235V58.8009C18.7561 55.1574 23.9104 52.2248 29.5089 52.2248C42.3057 52.2248 51.5478 62.5333 51.5478 75.3301C51.5478 88.0379 42.3057 98.4353 29.5089 98.4353C23.9104 98.4353 18.7561 95.5027 15.8235 91.9481L15.8235 118.697H5.33732ZM28.4425 62.7111C21.511 62.7111 15.8235 68.3985 15.8235 75.3301C15.8235 82.2616 21.511 87.9491 28.4425 87.9491C35.3741 87.9491 41.0615 82.2616 41.0615 75.3301C41.0615 68.3985 35.3741 62.7111 28.4425 62.7111ZM69.7161 30.8969V97.5466H59.2298L59.2298 30.8969H69.7161ZM77.4002 75.3301C77.4002 62.6222 86.7312 52.2248 99.439 52.2248C105.038 52.2248 110.192 55.1574 113.124 58.6232V53.1135H123.611V97.5466H113.124V91.8592C110.192 95.5027 105.038 98.4353 99.439 98.4353C86.7312 98.4353 77.4002 88.0379 77.4002 75.3301ZM100.505 62.7111C93.5739 62.7111 87.8864 68.3985 87.8864 75.3301C87.8864 82.2616 93.5739 87.9491 100.505 87.9491C107.437 87.9491 113.124 82.2616 113.124 75.3301C113.124 68.3985 107.437 62.7111 100.505 62.7111ZM147.902 97.5466L129.507 53.1135H140.882L153.679 84.3944L165.853 53.1135H177.228L156.345 105.545C152.968 113.987 146.925 117.986 138.66 117.986C137.327 117.986 135.905 117.986 134.572 117.897V107.766C135.372 107.766 136.172 107.855 137.061 107.855C141.237 107.855 144.081 106.256 146.125 101.634L147.902 97.5466Z" fill="#0E0E2C"/>
<path d="M214.409 75.4842H200.546V64.998H214.409V51.1348H224.895V64.998H238.67V75.4842H224.895V89.2584H214.409V75.4842Z" fill="#0E0E2C"/>
<path d="M72.724 123.109V189.758H62.2378L62.2378 123.109H72.724ZM80.4081 167.542C80.4081 154.478 90.1834 144.437 103.069 144.437C115.688 144.437 124.308 153.679 124.308 166.92C124.308 168.608 124.041 170.474 123.864 172.252H90.8055C92.5828 177.761 97.5593 181.138 104.135 181.138C108.401 181.138 112.489 179.628 115.155 176.695L121.82 183.36C117.554 188.07 111.334 190.647 104.047 190.647C90.6278 190.647 80.4081 180.605 80.4081 167.542ZM102.891 153.856C96.7595 153.856 91.5164 157.944 90.6278 164.076H114.444C113.555 157.766 108.845 153.856 102.891 153.856ZM129.961 167.542C129.961 154.834 139.292 144.437 152 144.437C157.599 144.437 162.753 147.369 165.686 150.835V145.325H176.172V189.758H165.686V184.071C162.753 187.714 157.599 190.647 152 190.647C139.292 190.647 129.961 180.25 129.961 167.542ZM153.067 154.923C146.135 154.923 140.448 160.61 140.448 167.542C140.448 174.473 146.135 180.161 153.067 180.161C159.998 180.161 165.686 174.473 165.686 167.542C165.686 160.61 159.998 154.923 153.067 154.923ZM196.998 189.758H186.512V145.325H196.998V150.391C200.019 146.836 204.64 144.437 210.328 144.437V154.39C209.972 154.301 209.528 154.301 209.173 154.301C202.508 154.301 196.998 159.011 196.998 165.764V189.758ZM227.546 189.758H217.059V145.325H227.546V150.124C230.834 146.658 235.632 144.437 240.876 144.437C251.184 144.437 258.293 151.724 258.293 163.01V189.758H247.807V165.231C247.807 157.766 243.897 154.301 238.298 154.301C232.256 154.301 227.546 158.744 227.546 165.764V189.758Z" fill="#0E0E2C"/>
</svg>
